<svg id="text_mobile" data-name="text mobile" xmlns="http://www.w3.org/2000/svg" width="1000" height="1750"><defs><style>.cls-1{fill:#50afa0}.cls-2{fill:#495057}.cls-3{fill:#868e96}.cls-4{fill:#f03e3e}.cls-5{fill:#fff}</style></defs><g id="Logo"><path class="cls-1" d="M323.4 797.3l-3.5-2.2-3.1-1.7-16.4 22.2q1.5 1.4 6.9 5.4t9.9 2.5q4.7-1.4 9.1-7.4t3.5-10q-.6-4.5-6.4-8.8zm-20.4 31l-7.8-5.8-18.3 24.8q.8 1.8 6.5 6.1t12.5 3.9q5.6-1.1 10.4-7.6a20.4 20.4 0 0 0 4-8.1 9.8 9.8 0 0 0-1.1-6.8 21.8 21.8 0 0 0-6.2-6.5zm245.8 17q-4.1-3-11.6-1.3a30.3 30.3 0 0 0-6.8 2.2l7 31.5a24.3 24.3 0 0 0 4.5-.8l4.1-.9a11.1 11.1 0 0 0 8.2-6.4q2.3-5 .4-13.8t-5.8-10.5z"/><path class="cls-1" d="M817.1 564.5l8.9 36.4h-36l8.9-36.4c-21.5-1.8-74.6-9.8-85.7-46.8h-.2a240.8 240.8 0 1 1-469.2 104q-1.4-8.8-2.1-17.7H121.1a361.1 361.1 0 0 0 721.8-19.2v-24.2a192.5 192.5 0 0 1-25.8 3.9zM342.2 825.3a19.8 19.8 0 0 1-7.6 6.4 18.7 18.7 0 0 1-9.2 1.7 23.2 23.2 0 0 1-9.5-2.7 31.5 31.5 0 0 1 8.6 9.2 18.5 18.5 0 0 1 2.7 10.3 18.2 18.2 0 0 1-3.8 10.1q-15.2 20.5-44-.8l-7.6-5.6-7.4-5.5-14.2-10.5 4.6-6.1 7.7 4L301 784l-5.9-6.2 4.9-6.6 13.8 10.2 7.9 5.8 6.4 4.7q9.5 7 13.7 12.8t4.2 10.8a16.9 16.9 0 0 1-3.8 9.8zM452.6 862l-8.7-1.8-1.4-11.9-21.6-4.6-5.9 27.7 13.6 2.9 3.9-8.6 7.8 1.7-5.8 27.2-7.8-1.7.2-10-13.7-2.9-6.2 28.8 24.1 5.1 9.7-12.9 8.6 4.5-7.1 19.6-63.6-13.5 1.5-7.2 8.6.4 13.5-63.8-8.2-3.4 1.6-7.5 59.2 12.6zM575 913.6q-1.7.4-4.1-2.8t-6.8-10q-3.3-5.3-5.6-8.7a48.7 48.7 0 0 0-4.8-6 10.6 10.6 0 0 0-4.7-3.2l-9.9 2.2 5.8 26.3 10-.9 1.6 7.2-36.1 8-1.6-7.2 8-3.2-14-63.3-8.3.3-1.8-8 16.6-3.7 8.4-1.9 3.6-.8 6.2-1.4q11.5-2.6 18.9-1.8t11.4 4.7q4.1 4 5.8 11.6a25.7 25.7 0 0 1 .3 9.5 23.5 23.5 0 0 1-3.5 9.2 21.1 21.1 0 0 1-7.5 7 16.4 16.4 0 0 1 6.8 3.1 36.5 36.5 0 0 1 6 5.5q2.7 3.1 6.1 7.5t5.4 6.5q1.9 2 3.5 2.1l3.6.4 1.6 7.2zm135-74.5l-58.2-19-15.2-7 36 44.9 9.8-6.1 4.6 5.7-24.1 19.3-4.6-5.7 6.1-6.6-40.8-51-7.9 4.3-4.8-6 21.3-17.1 55 17.8 12.6 6.2-32.4-40.4-8.4 4.9-4.8-6 22.4-18 4.8 6-5.8 6.6 46.3 57.7z"/><path class="cls-2" d="M613.3 351.6s-15-26.2 12.2-55.6H120v35l85.8.8V604h36v-38c9.5-124.2 113.3-222 240-222a239.7 239.7 0 0 1 112.1 27.7c3.7-6.6 9.8-13.4 19.4-20.1zM278 397.9a277.8 277.8 0 0 0-36.2 49.9V332.2l36.3.4zm24-23.3v-41.8l63.7.6a276.5 276.5 0 0 0-63.7 41.2zm466.4-34.7c10.4-6.5 23.4-12.8 39.6-18.9a238.9 238.9 0 0 1 34 15.5V296h-89.4c16 17.3 17.3 33.5 15.8 43.9z"/><path class="cls-3" d="M764 116H650l-10 16h134l-10-16zm-541 98c0-.8.1-1.4.1-2.1s.1-1.6.2-2.4l.3-2.4c.1-.8.2-1.6.4-2.4a58.8 58.8 0 0 1 2.5-9.2 24.6 24.6 0 0 1 4.9-8.3 18.5 18.5 0 0 1 7.6-5.2c-4 0-12 2-18 8s-8.5 12.2-9.9 20.3A177.5 177.5 0 0 0 209 228l14-14z"/><path class="cls-3" d="M233 188.4a22.5 22.5 0 0 0-2.6 8.1 54 54 0 0 0-.5 8.7 32.5 32.5 0 0 0 .4 4.2l.3 2.2c.1.7.3 1.5.4 2v.4h44a37 37 0 0 0-8-24c-5.8-7.1-18-8-18-8h-6v-32h-4v32a17.5 17.5 0 0 0-6 6.4zm42 33.6h-48l-18 6v18.4l66-7.5V222zm38-61.6a22.5 22.5 0 0 0-2.6 8.1 54 54 0 0 0-.5 8.7 32.5 32.5 0 0 0 .4 4.2l.3 2.2c.1.7.3 1.5.4 2v.4h44a37 37 0 0 0-8-24c-5.8-7.1-18-8-18-8h-6v-32h-4v32a17.5 17.5 0 0 0-6 6.4z"/><path class="cls-3" d="M303 186c0-.8.1-1.4.1-2.1s.1-1.6.2-2.4l.3-2.4c.1-.8.2-1.6.4-2.4a58.8 58.8 0 0 1 2.5-9.2 24.6 24.6 0 0 1 4.9-8.3 18.5 18.5 0 0 1 7.6-5.2c-4 0-12 2-18 8s-8.5 12.2-9.9 20.3A177.5 177.5 0 0 0 289 200l14-14zM440.8 56.1a43.7 43.7 0 0 1 .5-5.3 42.9 42.9 0 0 1 1.1-5.1 12.5 12.5 0 0 1 2.4-4.8 9.7 9.7 0 0 1 4.2-3h-2a13.9 13.9 0 0 0-5.9 3.6c-3.1 2.9-4.3 6.5-5 10.6A101.7 101.7 0 0 0 435 63l5.8-6.8z"/><path class="cls-3" d="M445.7 41.6a11.4 11.4 0 0 0-1.3 4.6 40.5 40.5 0 0 0-.1 4.9 45.9 45.9 0 0 0 .4 4.8H469s-.5-8.6-5-14c-2.9-3.5-9-4-9-4h-6a9.2 9.2 0 0 0-3.3 3.7zm-33.1 91c.3-3.3.5-6.5 1-10.1a117.7 117.7 0 0 1 5.1-19.7l1.8-4.8 1.1-2.4 1.2-2.3a48.2 48.2 0 0 1 5.9-8.4A37.5 37.5 0 0 1 445 74a35.1 35.1 0 0 0-12.3 13.8 42.1 42.1 0 0 0-3.2 8.4c-.2.7-.4 1.4-.5 2.2s-.3 1.4-.4 2.2-.5 3-.6 4.5a106.2 106.2 0 0 0-.3 18.2c.3 2.7.6 5.9 1 9s.5 3.8.8 5.7H517s4-30-16-48c-10.1-9.1-24.9-13.5-32-15.2V60h-26l-8 3v12.4A57.1 57.1 0 0 0 409 90c-12 12-16.9 24.3-19.8 40.6S385 162 385 162l27.1-20.3c.1-3.1.3-6 .5-9.1zM517 206l58.9-25.5L601 140l-60 24-24 42zm98-16l-14-50-13 50v90h56.5c11.2-7.5 25.7-15 44.5-22 18.8 7 33.3 14.5 44.5 22H843v-90H615z"/><path class="cls-3" d="M628 180h215l-25-40H601l27 40zm-207 36l46-26h50v-34h-96l-36 6 .1 52h-30.2l.1-20h-48l-18 6v37.4l65-7.4v15l-159 3 8 32h367v-81.1l-53 7.1h-50l-46 10z"/><path class="cls-4" d="M305 122h18v12h-18zm-80 28h18v12h-18z"/><path class="cls-2" d="M732.3 414.6s-16.6-28.9 16.5-60l5.5-8.9c.6-1.1 5.4-11.3.3-24.9s-20.4-32.4-65.5-50c-45.1 17.6-60.6 36.8-65.5 50s-.3 23.7.3 24.9l5.9 9.6-9.5 6.2c-7.4 5.2-12.7 10.5-15.8 16.1q7.2 4.2 14 9a75.9 75.9 0 0 1 61.7-3.6v-9.3l-.4-.2-10.7-5.1-10.7-5.2-10.6-5.4.7-1.5a44.8 44.8 0 0 1 7-.9c2.3-.2 4.4-.2 6.6-.1a82.8 82.8 0 0 1 12.4 1.4l5.9 1.3 8.6-40 9 40.9a88.3 88.3 0 0 1 9.7-2.4 84.1 84.1 0 0 1 12.4-1.4c2.2 0 4.3 0 6.6.1a45.1 45.1 0 0 1 7 .9l.7 1.5-10.6 5.4-10.7 5.2-10.7 5.1-4.4 2.1v17.2a76.7 76.7 0 0 1 24.5 29.9 81.3 81.3 0 0 1 9.8-7.9zM275.2 584.7a206.5 206.5 0 0 0 116.4 185.9l-98.5-269.9a205.7 205.7 0 0 0-17.9 84zm210.2 18.1l-62 180.1a206.6 206.6 0 0 0 126.9-3.3 19.3 19.3 0 0 1-1.5-2.8zm202.9-18.1c-.5-28-3.4-43.6-8.7-59.4a26.5 26.5 0 0 0-12.7 9.3c-7.3 9.7-12.9 28.2-18.2 46.2l-63.1 182.5c61.4-35.8 104-102.4 102.7-178.6z"/><path class="cls-2" d="M589.7 497a76 76 0 0 1 1.3-87.6 206.5 206.5 0 0 0-281.8 61.8l13.3.3c21.6 0 55-2.6 55-2.6 11.1-.7 12.4 15.7 1.3 17 0 0-11.2 1.3-23.6 2l75.2 223.7 45.2-135.5-32.2-88.2c-11.1-.7-21.7-2-21.7-2-11.1-.7-9.8-17.7 1.3-17 0 0 34.1 2.6 54.4 2.6s55-2.6 55-2.6c11.1-.7 12.4 15.7 1.3 17 0 0-11.2 1.3-23.6 2l74.6 222 20.6-68.8c8.9-28.6 15.7-49.1 15.7-66.8 0-25.5-8.7-50.9-24.4-68.4a74.6 74.6 0 0 1-6.9-8.9z"/><path class="cls-4" d="M712.3 435.7a63.1 63.1 0 1 0 .5 35.3c-3.8-7.2-8.3-20.4-.5-35.3z"/><path class="cls-5" d="M697.7 439.2h-28.4a1.8 1.8 0 0 1-1.8-1.8V409a1.8 1.8 0 0 0-1.8-1.8h-26.3a1.8 1.8 0 0 0-1.8 1.8v28.5a1.8 1.8 0 0 1-1.8 1.8h-28.3a1.8 1.8 0 0 0-1.8 1.8v26.3a1.8 1.8 0 0 0 1.8 1.8H636a1.8 1.8 0 0 1 1.8 1.8v28.5a1.8 1.8 0 0 0 1.8 1.8h26.3a1.8 1.8 0 0 0 1.8-1.8v-28.7a1.8 1.8 0 0 1 1.8-1.8H698a1.8 1.8 0 0 0 1.8-1.8V441a1.8 1.8 0 0 0-2.1-1.8z"/><path class="cls-2" d="M886 473.8l4.5-5.1c.5-.7 6.8-9 5.3-19.3-1.2-8.7-7.6-17-18.9-24.9l-9.3-6.5 5.7-9.3c.6-1.1 5.4-11.3.3-24.9s-20.4-32.4-65.5-50c-45.1 17.6-60.6 36.8-65.5 50s-.3 23.7.3 24.9l5.9 9.6-9.5 6.2c-11.4 8-17.8 16.4-19 25.2-1.4 10.5 5.2 18.9 5.3 19l4.5 5.3-2.4 6.5c-6.6 18.1-6 32.2 1.6 43.3 13.9 20 49.4 27 69.8 28.7v-52.7l-7.2-2.3-15.7-5.1-15.7-5.2-15.6-5.4.5-1.5a69.3 69.3 0 0 1 9-1.1c3-.2 5.9-.3 8.8-.3a148.8 148.8 0 0 1 17 1.2l4.2.6 4.1.7 8.2 1.6 2.6.6v-47l-.4-.2-10.7-5.1-10.7-5.2-10.6-5.4.7-1.5a44.8 44.8 0 0 1 7-.9c2.3-.2 4.4-.2 6.6-.1a82.8 82.8 0 0 1 12.4 1.4l5.9 1.3L808 381l9 40.9a88.3 88.3 0 0 1 9.7-2.4 84.1 84.1 0 0 1 12.4-1.4c2.2 0 4.3 0 6.6.1a45.1 45.1 0 0 1 7 .9l.7 1.5-10.6 5.4-10.7 5.2-10.7 5.1-4.4 2.1v45.1l2.6-.6 8.2-1.6 4.1-.7 4.2-.6a151.3 151.3 0 0 1 17-1.2c2.9 0 5.8 0 8.7.2a69.9 69.9 0 0 1 9 1.1l.5 1.5-15.6 5.4-15.7 5.2-15.7 5.1-7.2 2.3v52.7c20.4-1.7 55.9-8.8 69.8-28.7 7.7-11.1 8.2-25.2 1.6-43.3z"/></g><path class="cls-2" d="M59.5 1050.1v-8.3h42.7v8.3l-16.6 1.9 24.7 79.4 5.6 26.6 6.6-26.6 20.4-65.4-4.6-14.1-12.5-1.9v-8.3H170v8.3l-17 2 24 79.4 6.6 28.4 5.6-28.4L212 1052l-17.8-1.9v-8.3h40.3v8.3L223 1052l-34.8 116.2H175l-27.5-87.6-27.1 87.6h-12.3l-36.8-116.1zm234.3 30a36.6 36.6 0 0 1 13.7 17 63.9 63.9 0 0 1 4.3 24.2q0 14.2-6.2 24.9a43.6 43.6 0 0 1-16.3 16.4 42.3 42.3 0 0 1-21.1 5.7q-14.6 0-24-6.3a36.3 36.3 0 0 1-13.7-17 64.5 64.5 0 0 1-4.3-24.2q0-14.1 6.2-24.8a43.6 43.6 0 0 1 16.3-16.4 42 42 0 0 1 21.1-5.7q14.6-.1 24 6.2zm-4.1 13.6q-6.6-11-20.6-11t-20.3 9.5q-7.2 9.5-7.2 27.8a66.6 66.6 0 0 0 2.8 20.1 30 30 0 0 0 8.9 14.1q6.1 5.2 15.6 5.2 13.1 0 20.3-9.5t7.1-27.7q0-17.5-6.6-28.5zm44.6 66.3v-72.3l-13.1-3v-7.7l21.5-2.7h.4l3.2 2.7v16.3h.1l4.4-5.3q4.1-5 12.4-9.6a34 34 0 0 1 16.7-4.6 16 16 0 0 1 5.1.7v15.8a7.1 7.1 0 0 0-3-1.6 14.9 14.9 0 0 0-4.8-.8 41 41 0 0 0-16.7 3.1 55.3 55.3 0 0 0-12.4 7.4v62h22.6v7.6h-50v-7.1zm62.2-61.7a44.6 44.6 0 0 1 16.9-17.9q11-6.6 25.6-6.6a80.4 80.4 0 0 1 18 2.1v-33.7l-17.7-1.6v-6.2l27.8-2.8h.4l3.2 2.4v125h10.4v6.6l-1.7.4-7.6 1.7a38.1 38.1 0 0 1-6.9.6 13.4 13.4 0 0 1-4.1-.5 3.9 3.9 0 0 1-2.2-2 10.7 10.7 0 0 1-.8-4.7v-6a44.3 44.3 0 0 1-12.9 9.4 38.2 38.2 0 0 1-17.1 3.8 35.8 35.8 0 0 1-18.5-5q-8.4-5-13.6-15.1t-5.1-24.7a53.6 53.6 0 0 1 5.9-25.2zm60.6-9.7q-1.4-2.5-7.1-4.4a39.6 39.6 0 0 0-12.2-1.8 32.4 32.4 0 0 0-16.8 4.3q-7.2 4.3-11.3 13.2t-4.1 22.6q0 12.1 3.7 20t10 11.6a27.4 27.4 0 0 0 14.1 3.7 30.8 30.8 0 0 0 9.8-1.6 33.5 33.5 0 0 0 8.3-4 27 27 0 0 0 5.6-4.9zm39.6-16.8a56.8 56.8 0 0 1 21.7-22.1 61 61 0 0 1 30.8-7.9 99.2 99.2 0 0 1 16.7 1.4q8.1 1.4 16.4 3.4l2.7.7-1.4 27H575l-3.7-19.1q-2.5-2.2-9.1-3.6a77.5 77.5 0 0 0-16.3-1.5 37.3 37.3 0 0 0-21 6.2q-9.3 6.2-14.7 18.1t-5.4 28.5a84.8 84.8 0 0 0 4.6 28.6 46.9 46.9 0 0 0 14.2 21q9.5 7.9 23.4 7.9 9.7 0 15.1-1.6a28.1 28.1 0 0 0 9.3-4.5l6.8-15.6 8.3 1.2-4.2 22a17.1 17.1 0 0 0-4.5.6l-5.6 1.7a96.2 96.2 0 0 1-11.6 3.1 72.6 72.6 0 0 1-14 1.1q-18.3 0-31.3-7.9a50.9 50.9 0 0 1-19.8-22.4q-6.8-14.5-6.8-33.8t8-32.5zm158.2 33.7q0-7.7-1.8-12.1a11.9 11.9 0 0 0-6.2-6.5q-4.4-2.1-12.5-2.1-14.3 0-29.9 8.2h-.1l-3.7-6.5q1.9-1.8 8-4.9a85.9 85.9 0 0 1 13.8-5.4 51 51 0 0 1 14.9-2.4q11.6 0 18.3 3.1a18.8 18.8 0 0 1 9.7 10q2.9 6.9 2.9 18.5v53.9h10.6v6.3q-10 2.7-15.9 2.7a14.7 14.7 0 0 1-4.2-.5 3.6 3.6 0 0 1-2.2-2 11.4 11.4 0 0 1-.7-4.7v-6.2a94.7 94.7 0 0 1-7.6 5.9 49.2 49.2 0 0 1-9.8 5.1 32.8 32.8 0 0 1-12.4 2.4 34.5 34.5 0 0 1-14.3-2.9 23.2 23.2 0 0 1-10.3-8.9q-3.8-6-3.8-14.8a22.9 22.9 0 0 1 8-18.1q8-7 20.8-10.1a118.4 118.4 0 0 1 28.2-3.1zm0 12.6q-13.8 0-23.2 2.8t-14.1 7.9a16.9 16.9 0 0 0-4.6 11.8q0 9.7 5 14.2t13.4 4.4q4.9 0 11.5-3.2a61.3 61.3 0 0 0 12.1-7.7zm45.9 41.7v-72.1l-13.2-2.9v-8.1l21.7-2.7h.4l3.3 2.7v7.8l-.2 4.3a60.2 60.2 0 0 1 9.9-7 72 72 0 0 1 12.7-5.8 38.5 38.5 0 0 1 12.4-2.3q9 0 14.6 3.2a20.2 20.2 0 0 1 8.4 9.8 50.2 50.2 0 0 1 9.1-5.9 73.5 73.5 0 0 1 12.5-5.1 42.5 42.5 0 0 1 12.4-2.1q10.7 0 16.6 4.1t8.3 12.4q2.4 8.3 2.4 22.4v47.2l12.9 1.3v7.1h-38v-7.1l11.5-1.3v-46.6a69 69 0 0 0-1.6-16.5 15.8 15.8 0 0 0-6-9.3q-4.4-3.2-12.8-3.2a35.3 35.3 0 0 0-13.1 2.9 52.7 52.7 0 0 0-11.9 6.5q1.7 7.4 1.7 19.7v46.6l12.9 1.3v7.1h-38.9v-7.1l12.3-1.3v-47a79.8 79.8 0 0 0-1.3-16.5 14.8 14.8 0 0 0-5.4-9q-4-3-12.1-3a35.6 35.6 0 0 0-14.3 3.4 62.3 62.3 0 0 0-13.6 8.1v64.1l12 1.3v7.1h-36.5v-7.1zm181.8 7.7a43.6 43.6 0 0 1-8.7-2l.3 15.1v19.1l18.8 1.8v7.8h-45.5v-7.8l13.1-1.7v-111.7l-13.3-2.8v-8.3l21.7-2.7h.4l3.1 2.7v10.8a50.3 50.3 0 0 1 13.2-9.9 38.5 38.5 0 0 1 35.9.7q8.4 4.8 13.6 14.7t5.2 24.8a54.5 54.5 0 0 1-5.9 25.4 45.2 45.2 0 0 1-16.9 18.1 47.2 47.2 0 0 1-25.1 6.7 71.7 71.7 0 0 1-9.9-.8zm-8.4-12.8a8.1 8.1 0 0 0 3.7 2.6 33.6 33.6 0 0 0 6.9 2.1 43.3 43.3 0 0 0 8.5.8 31.6 31.6 0 0 0 16.5-4.3q7.2-4.3 11.5-13.3t4.4-22.2q.1-12.3-3.7-20.4t-10-11.9a27.3 27.3 0 0 0-14.3-3.8 30.8 30.8 0 0 0-13.6 3 32.9 32.9 0 0 0-9.8 6.9zm-558.7 169.7v-97.8l-12.8-2.3v-12.5h53q17.9 0 28.3 3.3t14.8 9.4q4.4 6.1 4.4 15.3a30.1 30.1 0 0 1-3.5 14.6 28.4 28.4 0 0 1-9.6 10.4 35.1 35.1 0 0 1-14 5.2 47.8 47.8 0 0 1 18.9 3.5 28 28 0 0 1 12.6 10.1 27.6 27.6 0 0 1 4.5 15.8q0 38.8-54.4 38.8h-55v-11.6zm41.2 2.6q12.9 0 18.8-6.5t5.9-18.7q0-8.4-2.4-13.4a14.9 14.9 0 0 0-7.6-7.3q-5.1-2.3-13.3-2.3h-14.9v46.8q2.7 1.4 13.5 1.4zm-.1-61.1q9.9 0 14.4-5.9t4.5-17.2q0-10.5-4.8-15.4t-15.8-4.9a61.3 61.3 0 0 0-6.3.4l-5.3.7v41.9q3.2.5 13.3.5zm68.5-.1a39.8 39.8 0 0 1 16.2-16.5q10.5-5.7 24.2-5.7 17.5 0 26.9 8.2t9.8 23.4q0 10.6-1.2 16.1h-53.7q1 15.3 7.5 22.7t17.3 7.4a42.7 42.7 0 0 0 13-2.2 46.3 46.3 0 0 0 11-4.9l4.8 10.3a35.7 35.7 0 0 1-8.6 6.2 62.6 62.6 0 0 1-13 5.3 53 53 0 0 1-14.7 2.1q-15.4 0-25.6-5.9a35.5 35.5 0 0 1-14.9-16.4q-4.8-10.5-4.8-24.7t5.8-25.4zm50.6 14.2v-6q0-8.9-3-13.8t-10.1-4.9a15 15 0 0 0-8.1 2.1q-3.3 2.1-5.3 7.5T447 1280zm45.3 46.1v-62l-10-3.3v-13.1l27.8-3.8h.4l4.9 3.7v4.8l-.4 13.1h.4a29.2 29.2 0 0 1 5.3-8.9 39.1 39.1 0 0 1 10.5-9 26.5 26.5 0 0 1 13.9-3.9 17.2 17.2 0 0 1 3.8.4 9.3 9.3 0 0 1 2.7 1v29a20.3 20.3 0 0 0-5.9-3.5 21.8 21.8 0 0 0-7.3-1.1 39.4 39.4 0 0 0-11.3 1.5 21.2 21.2 0 0 0-7.8 3.8v51.2l19.6 1.7v10.5H510v-10.6zm77.7-.2V1264l-10.2-3.2v-13.7l30-3.8h.4l4.6 3.7v6.1l-.2 3.8a50.8 50.8 0 0 1 15.1-9.3 47.8 47.8 0 0 1 18.7-3.9q10.3 0 16.2 3.6t8.6 11.6q2.6 8 2.6 21.7v45.2l10 1.4v10.9h-46.3v-10.8l8.7-1.5v-45.1a56.6 56.6 0 0 0-1.1-12.5 11.1 11.1 0 0 0-3.9-6.6q-2.8-2.1-8.1-2.1a23.1 23.1 0 0 0-9.6 2.2 34.2 34.2 0 0 0-8.2 5v59.2l9.6 1.5v10.8H589v-10.8zm-337.6 158.6a85.4 85.4 0 0 1-26.1 29.3q-16 11.1-32.7 13.1l-5.4-10q16.9-5.2 27.4-17.6a74.6 74.6 0 0 0 15.1-29.4 36.2 36.2 0 0 1-10 5.4 38.5 38.5 0 0 1-12.9 2 37.8 37.8 0 0 1-19.5-5 35 35 0 0 1-13.4-14.2 44.6 44.6 0 0 1-4.9-21.2 48.1 48.1 0 0 1 5.3-22.9 41.7 41.7 0 0 1 16.1-16.6q10.6-6.2 25.2-6.2t25.2 6.8a41.4 41.4 0 0 1 15.4 18.7q5.1 11.9 5.1 27.3a82.3 82.3 0 0 1-9.9 40.5zm-18.3-40.6v-2.8q0-17.9-4.5-28.3t-14.5-10.3a13 13 0 0 0-9.8 4.2 26.5 26.5 0 0 0-6 11 48.8 48.8 0 0 0-2 13.9q0 15.9 5 23.7t13.2 7.7a29.6 29.6 0 0 0 10.2-1.7 23.1 23.1 0 0 0 7.4-4.1 131.9 131.9 0 0 0 1-13.3zm42.6 32.5a15.8 15.8 0 0 1 6.2-5.5 18.4 18.4 0 0 1 8.4-2 16 16 0 0 1 8 1.9 13.2 13.2 0 0 1 5.1 5.1 13.8 13.8 0 0 1 1.8 6.8q0 7.1-4.9 11.3t-12.6 4.2a14.5 14.5 0 0 1-7-1.8 14.3 14.3 0 0 1-5.4-4.9 13 13 0 0 1-2-7.2 14.1 14.1 0 0 1 2.4-7.9zm115.4 8.1a85.4 85.4 0 0 1-26.1 29.3q-16 11.1-32.7 13.1l-5.4-10q16.9-5.2 27.4-17.6a74.6 74.6 0 0 0 15.1-29.4 36.2 36.2 0 0 1-10 5.4 38.5 38.5 0 0 1-12.9 2 37.8 37.8 0 0 1-19.5-5 35 35 0 0 1-13.4-14.2 44.6 44.6 0 0 1-4.9-21.2 48.1 48.1 0 0 1 5.5-22.9 41.7 41.7 0 0 1 16.1-16.6q10.6-6.2 25.2-6.2t25.2 6.8a41.4 41.4 0 0 1 15.4 18.7q5.1 11.9 5.1 27.3a82.3 82.3 0 0 1-10.1 40.5zm-18.3-40.6v-2.8q0-17.9-4.5-28.3t-14.5-10.3a13 13 0 0 0-9.8 4.2 26.5 26.5 0 0 0-6 11 48.8 48.8 0 0 0-2 13.9q0 15.9 5 23.7t13.3 7.7a29.6 29.6 0 0 0 10.2-1.7 23.1 23.1 0 0 0 7.4-4.1 131.9 131.9 0 0 0 1-13.3zm42.7 32.5a15.8 15.8 0 0 1 6.2-5.5 18.4 18.4 0 0 1 8.4-2 16 16 0 0 1 8 1.9 13.2 13.2 0 0 1 5.1 5.1 13.8 13.8 0 0 1 1.8 6.8q0 7.1-4.9 11.3t-12.6 4.2a14.5 14.5 0 0 1-7-1.8 14.3 14.3 0 0 1-5.4-4.9 13 13 0 0 1-2-7.2 14.1 14.1 0 0 1 2.4-7.9zm78.1-18.4q14.4-15.9 14.4-31.3 0-7.9-5-12.5t-13.5-4.6a31.2 31.2 0 0 0-10.7 1.7 32.8 32.8 0 0 0-7.6 3.7q-2.8 2-7.2 5.6l-7-10.2a44.5 44.5 0 0 1 9.8-8.7 64.6 64.6 0 0 1 15-7.5 50.8 50.8 0 0 1 17.1-3q12.8 0 21.4 4.2a28.3 28.3 0 0 1 17 26.6q0 15.9-15.1 31.5t-39.2 29.6l46.5-4.2 6.6-12.7 11.8 2.4-4.6 29.6h-83.5l-3.9-10.2q23.3-14.1 37.7-30zm68.6-43.9a44.4 44.4 0 0 1 17.9-18.6 51 51 0 0 1 24.9-6.1q21.8 0 33.1 13.6t11.2 39.2q0 18-6.6 30.7t-17.8 19a49 49 0 0 1-24.7 6.4q-14.3 0-24.3-6.4a39.9 39.9 0 0 1-15.1-18.5q-5.1-12-5.1-28.7t6.5-30.6zm56.5 4.9q-1.8-9.5-5.7-14a13.3 13.3 0 0 0-10.5-4.5q-9.5 0-13.9 10.3t-4.4 31.6q0 23 4.4 33.9t14.2 10.9q9.4 0 13.6-10.4t4.2-32.4q-.1-15.9-1.8-25.4zm61.1 65.8v-67.1a91.9 91.9 0 0 1-10.5 2.2 73.7 73.7 0 0 1-11.1 1.3l-2.2-13.1a80.3 80.3 0 0 0 19.7-6.8A81.7 81.7 0 0 0 702 1391h.1l15.4 1.7v92l17.5 2.3v11h-65.5v-11zm67.4-75.1l-9.5 24.8-15.9-3.2 4.3-38.4H818l4.9 6.2-45.5 129.9-28.8-7.9q10.8-21.4 21.3-45.3t23.8-55.4l4.5-10.8zM200.7 1683v-8.7h19.7l3.5-37.5h-20.4v-8.8h21.1l2.5-28.8h11.3l-2.5 28.8h30.8l2.6-28.8h11.2l-2.6 28.8h20.3v8.7h-21.1l-3.3 37.5h20.8v8.7h-21.7l-2.7 30.2H259l2.6-30.2h-31l-2.7 30.2h-11.5l2.9-30.2zm65.1-46.2H235l-3.4 37.5h30.5zm43.2-11v-6.9h36.9v6.9l-13.5 2 15.1 52 5.6 23.2 5.6-23.4 17-60.8h14.1l17 60.7 5.5 23.6 6.1-23.4 14.9-51.9-13.1-2.1v-6.9h33.3v6.9l-9.4 2-26.4 85.3h-13.9l-18.4-62.3-4.8-21.1-4.2 21.1-17.8 62.3h-13.3l-27.3-85.2zm203.1-5.4a75.3 75.3 0 0 1 10.9 3.5l-.7 23.1h-8.5l-3.6-15.3q-1.2-4.9-14.6-4.9a27.1 27.1 0 0 0-15.4 4.4 28 28 0 0 0-10.1 12.5 47.7 47.7 0 0 0-3.6 19.2q0 13.3 4 22.4t10.9 13.5a28.3 28.3 0 0 0 15.7 4.4 45.4 45.4 0 0 0 14-2.2 41.4 41.4 0 0 0 11-5.1l2.7 5.3a40.3 40.3 0 0 1-13.6 8.5 45.2 45.2 0 0 1-17.1 3.5q-13.4 0-23-6.1a38.2 38.2 0 0 1-14.4-16.5 55.3 55.3 0 0 1-4.9-23.6 54.4 54.4 0 0 1 5.4-24.2 41.9 41.9 0 0 1 16-17.6q10.6-6.6 25.9-6.6a52.9 52.9 0 0 1 13 1.8zm13.7-34.7v-6.2l24.8-2.9h.3l3.2 2.4v52.1a47 47 0 0 1 12.7-8.8 37.6 37.6 0 0 1 16.4-3.5 37 37 0 0 1 18.4 4.8q8.5 4.8 13.6 14.7t5.1 24.8a54.3 54.3 0 0 1-5.9 25.3 45.2 45.2 0 0 1-17 18.2q-11 6.7-25.6 6.7a87.1 87.1 0 0 1-14.1-1.1 80.1 80.1 0 0 1-11.6-2.7q-4.7-1.5-5.9-2.8v-119.5zm28.3 113.3q1.3 2.6 6.8 4.2a46 46 0 0 0 12.3 1.5 31.6 31.6 0 0 0 16.8-4.4 29.5 29.5 0 0 0 11.4-13.5q4.1-9 4.1-22.3t-3.7-19.8a25.8 25.8 0 0 0-10-11.6 27.2 27.2 0 0 0-14.1-3.7 28.3 28.3 0 0 0-13.5 3.4 36.4 36.4 0 0 0-10 7.4zm88.2 6v-72.3l-13.1-3v-7.7l21.5-2.7h.4l3.2 2.7v16.3h.1l4.4-5.3q4.1-5 12.4-9.6a34 34 0 0 1 16.7-4.6 16 16 0 0 1 5.1.7v15.8a7.1 7.1 0 0 0-3-1.6 14.9 14.9 0 0 0-4.8-.8 41 41 0 0 0-16.7 3.1 55.3 55.3 0 0 0-12.4 7.4v62h22.6v7.6h-50v-7.1zm73.2-.2v-72.1l-13.2-3.3v-7.6l21.7-2.8h.4l3.3 2.7v7.8l-.2 4.3a58.9 58.9 0 0 1 10-7 72.1 72.1 0 0 1 13-5.8 40.9 40.9 0 0 1 12.9-2.3q10.8 0 16.7 4.1t8.2 12.5q2.3 8.4 2.3 22.4v47.1l12.8 1.2v7.1h-38.2v-7.1l11.7-1.2v-47a73 73 0 0 0-1.5-16.4 15.1 15.1 0 0 0-5.6-9q-4.2-3-12.2-3a37.1 37.1 0 0 0-14.7 3.4 62.4 62.4 0 0 0-13.7 8v64l12.4 1.3v7.1h-37.5v-7.1z" id="Text"/></svg>