<svg xmlns="http://www.w3.org/2000/svg" width="1850" height="1750"><defs><style>.cls-1{fill:#50afa0}.cls-2{fill:#495057}.cls-3{fill:#868e96}.cls-4{fill:#f03e3e}.cls-5{fill:#fff}</style></defs><g id="text_tablet" data-name="text tablet"><g id="Logo-2" data-name="Logo"><path class="cls-1" d="M740.4 797.3l-3.5-2.2-3.1-1.7-16.4 22.2q1.5 1.4 6.9 5.4t9.9 2.5q4.7-1.4 9.1-7.4t3.5-10q-.6-4.5-6.4-8.8zm-20.4 31l-7.8-5.8-18.3 24.8q.8 1.8 6.5 6.1t12.5 3.9q5.6-1.1 10.4-7.6a20.4 20.4 0 0 0 4-8.1 9.8 9.8 0 0 0-1.1-6.8 21.8 21.8 0 0 0-6.2-6.5zm245.8 17q-4.1-3-11.6-1.3a30.3 30.3 0 0 0-6.8 2.2l7 31.5a24.3 24.3 0 0 0 4.5-.8l4.1-.9a11.1 11.1 0 0 0 8.2-6.4q2.3-5 .4-13.8t-5.8-10.5z"/><path class="cls-1" d="M1234.1 564.5l8.9 36.4h-36l8.9-36.4c-21.5-1.8-74.6-9.8-85.7-46.8h-.1a240.8 240.8 0 1 1-469.3 104q-1.4-8.8-2.1-17.7H538.1a361.1 361.1 0 0 0 721.8-19.2v-24.2a192.5 192.5 0 0 1-25.8 3.9zM759.2 825.3a19.8 19.8 0 0 1-7.6 6.4 18.7 18.7 0 0 1-9.2 1.7 23.2 23.2 0 0 1-9.5-2.7 31.5 31.5 0 0 1 8.6 9.2 18.5 18.5 0 0 1 2.7 10.3 18.2 18.2 0 0 1-3.8 10.1q-15.2 20.5-44-.8l-7.6-5.6-7.4-5.5-14.2-10.5 4.6-6.1 7.7 4L718 784l-5.9-6.2 4.9-6.6 13.8 10.2 7.9 5.8 6.4 4.7q9.5 7 13.7 12.8t4.2 10.8a16.9 16.9 0 0 1-3.8 9.8zM869.6 862l-8.7-1.8-1.4-11.9-21.6-4.6-5.9 27.7 13.6 2.9 3.9-8.6 7.8 1.7-5.8 27.2-7.8-1.7.2-10-13.7-2.9-6.2 28.8 24.1 5.1 9.7-12.9 8.6 4.5-7.1 19.6-63.6-13.5 1.5-7.2 8.6.4 13.5-63.8-8.2-3.4 1.6-7.5 59.2 12.6zM992 913.6q-1.7.4-4.1-2.8t-6.8-10q-3.3-5.3-5.6-8.7a48.7 48.7 0 0 0-4.8-6 10.6 10.6 0 0 0-4.7-3.2l-9.9 2.2 5.8 26.3 10-.9 1.6 7.2-36.1 8-1.6-7.2 8-3.2-14-63.3-8.3.3-1.8-8 16.6-3.7 8.4-1.9 3.6-.8 6.2-1.4q11.5-2.6 18.9-1.8t11.4 4.7q4.1 4 5.8 11.6a25.7 25.7 0 0 1 .3 9.5 23.5 23.5 0 0 1-3.5 9.2 21.1 21.1 0 0 1-7.5 7 16.4 16.4 0 0 1 6.8 3.1 36.5 36.5 0 0 1 6 5.5q2.7 3.1 6.1 7.5t5.4 6.5q1.9 2 3.5 2.1l3.6.4 1.6 7.2zm135-74.5l-58.2-19-15.2-7 36 44.9 9.8-6.1 4.6 5.7-24.1 19.3-4.6-5.7 6.1-6.6-40.8-51-7.9 4.3-4.8-6 21.3-17.1 55 17.8 12.6 6.2-32.4-40.4-8.4 4.9-4.8-6 22.4-18 4.8 6-5.8 6.6 46.3 57.7z"/><path class="cls-2" d="M1030.3 351.6s-15-26.2 12.2-55.6H537v35l85.8.8V604h36v-38c9.5-124.2 113.3-222 240-222a239.7 239.7 0 0 1 112.1 27.7c3.7-6.6 9.8-13.4 19.4-20.1zM695 397.9a277.8 277.8 0 0 0-36.2 49.9V332.2l36.3.4zm24-23.3v-41.8l63.7.6a276.5 276.5 0 0 0-63.7 41.2zm466.4-34.7c10.4-6.5 23.4-12.8 39.6-18.9a238.9 238.9 0 0 1 34 15.5V296h-89.4c16 17.3 17.3 33.5 15.8 43.9z"/><path class="cls-3" d="M1181 116h-114l-10 16h134l-10-16zm-541 98c0-.8.1-1.4.1-2.1s.1-1.6.2-2.4l.3-2.4c.1-.8.2-1.6.4-2.4a58.8 58.8 0 0 1 2.5-9.2 24.6 24.6 0 0 1 4.9-8.3 18.5 18.5 0 0 1 7.6-5.2c-4 0-12 2-18 8s-8.5 12.2-9.9 20.3A177.5 177.5 0 0 0 626 228l14-14z"/><path class="cls-3" d="M650 188.4a22.5 22.5 0 0 0-2.6 8.1 54 54 0 0 0-.5 8.7 32.5 32.5 0 0 0 .4 4.2l.3 2.2c.1.7.3 1.5.4 2v.4h44a37 37 0 0 0-8-24c-5.8-7.1-18-8-18-8h-6v-32h-4v32a17.5 17.5 0 0 0-6 6.4zm42 33.6h-48l-18 6v18.4l66-7.5V222zm38-61.6a22.5 22.5 0 0 0-2.6 8.1 54 54 0 0 0-.5 8.7 32.5 32.5 0 0 0 .4 4.2l.3 2.2c.1.7.3 1.5.4 2v.4h44a37 37 0 0 0-8-24c-5.8-7.1-18-8-18-8h-6v-32h-4v32a17.5 17.5 0 0 0-6 6.4z"/><path class="cls-3" d="M720 186c0-.8.1-1.4.1-2.1s.1-1.6.2-2.4l.3-2.4c.1-.8.2-1.6.4-2.4a58.8 58.8 0 0 1 2.5-9.2 24.6 24.6 0 0 1 4.9-8.3 18.5 18.5 0 0 1 7.6-5.2c-4 0-12 2-18 8s-8.5 12.2-9.9 20.3A177.5 177.5 0 0 0 706 200l14-14zM857.8 56.1a43.7 43.7 0 0 1 .5-5.3 42.9 42.9 0 0 1 1.1-5.1 12.5 12.5 0 0 1 2.4-4.8 9.7 9.7 0 0 1 4.2-3h-2a13.9 13.9 0 0 0-5.9 3.6c-3.1 2.9-4.3 6.5-5 10.6A101.7 101.7 0 0 0 852 63l5.8-6.8z"/><path class="cls-3" d="M862.7 41.6a11.4 11.4 0 0 0-1.3 4.6 40.5 40.5 0 0 0-.1 4.9 45.9 45.9 0 0 0 .4 4.8H886s-.5-8.6-5-14c-2.9-3.5-9-4-9-4h-6a9.2 9.2 0 0 0-3.3 3.7zm-33.1 91c.3-3.3.5-6.5 1-10.1a117.7 117.7 0 0 1 5.1-19.7l1.8-4.8 1.1-2.4 1.2-2.3a48.2 48.2 0 0 1 5.9-8.4A37.5 37.5 0 0 1 862 74a35.1 35.1 0 0 0-12.3 13.8 42.1 42.1 0 0 0-3.2 8.4c-.2.7-.4 1.4-.5 2.2s-.3 1.4-.4 2.2-.5 3-.6 4.5a106.2 106.2 0 0 0-.3 18.2c.3 2.7.6 5.9 1 9s.5 3.8.8 5.7H934s4-30-16-48c-10.1-9.1-24.9-13.5-32-15.2V60h-26l-8 3v12.4A57.1 57.1 0 0 0 826 90c-12 12-16.9 24.3-19.8 40.6S802 162 802 162l27.1-20.3c.1-3.1.3-6 .5-9.1zM934 206l58.9-25.5L1018 140l-60 24-24 42zm98-16l-14-50-13 50v90h56.5c11.2-7.5 25.7-15 44.5-22 18.8 7 33.3 14.5 44.5 22H1260v-90h-228z"/><path class="cls-3" d="M1045 180h215l-25-40h-217l27 40zm-207 36l46-26h50v-34h-96l-36 6 .1 52h-30.2l.1-20h-48l-18 6v37.4l65-7.4v15l-159 3 8 32h367v-81.1l-53 7.1h-50l-46 10z"/><path class="cls-4" d="M722 122h18v12h-18zm-80 28h18v12h-18z"/><path class="cls-2" d="M1149.3 414.6s-16.6-28.9 16.5-60l5.5-8.9c.6-1.1 5.4-11.3.3-24.9s-20.4-32.4-65.5-50c-45.1 17.6-60.6 36.8-65.5 50s-.3 23.7.3 24.9l5.9 9.6-9.5 6.2c-7.4 5.2-12.7 10.5-15.8 16.1q7.2 4.2 14 9a75.9 75.9 0 0 1 61.7-3.6v-9.3l-.4-.2-10.7-5.1-10.7-5.2-10.6-5.4.7-1.5a44.8 44.8 0 0 1 7-.9c2.3-.2 4.4-.2 6.6-.1a82.8 82.8 0 0 1 12.4 1.4l5.9 1.3 8.6-40 9 40.9a88.3 88.3 0 0 1 9.7-2.4 84.1 84.1 0 0 1 12.4-1.4c2.2 0 4.3 0 6.6.1a45.1 45.1 0 0 1 7 .9l.7 1.5-10.6 5.4-10.7 5.2-10.7 5.1-4.4 2.1v17.2a76.7 76.7 0 0 1 24.5 29.9 81.3 81.3 0 0 1 9.8-7.9zM692.2 584.7a206.5 206.5 0 0 0 116.4 185.9l-98.5-269.9a205.7 205.7 0 0 0-17.9 84zm210.2 18.1l-62 180.1a206.6 206.6 0 0 0 126.9-3.3 19.3 19.3 0 0 1-1.5-2.8zm202.9-18.1c-.5-28-3.4-43.6-8.7-59.4a26.5 26.5 0 0 0-12.7 9.3c-7.3 9.7-12.9 28.2-18.2 46.2l-63.1 182.4c61.4-35.7 104-102.3 102.7-178.5z"/><path class="cls-2" d="M1006.7 497a76 76 0 0 1 1.3-87.6 206.5 206.5 0 0 0-281.8 61.8l13.3.3c21.6 0 55-2.6 55-2.6 11.1-.7 12.4 15.7 1.3 17 0 0-11.2 1.3-23.6 2l75.2 223.7 45.2-135.5-32.2-88.2c-11.1-.7-21.7-2-21.7-2-11.1-.7-9.8-17.7 1.3-17 0 0 34.1 2.6 54.4 2.6s55-2.6 55-2.6c11.1-.7 12.4 15.7 1.3 17 0 0-11.2 1.3-23.6 2l74.6 222 20.6-68.8c8.9-28.6 15.7-49.1 15.7-66.8 0-25.5-8.7-50.9-24.4-68.4a74.6 74.6 0 0 1-6.9-8.9z"/><path class="cls-4" d="M1129.3 435.7a63.1 63.1 0 1 0 .5 35.3c-3.8-7.2-8.3-20.4-.5-35.3z"/><path class="cls-5" d="M1114.8 439.2h-28.5a1.8 1.8 0 0 1-1.8-1.8V409a1.8 1.8 0 0 0-1.8-1.8h-26.3a1.8 1.8 0 0 0-1.8 1.8v28.5a1.8 1.8 0 0 1-1.8 1.8h-28.5a1.8 1.8 0 0 0-1.8 1.8v26.3a1.8 1.8 0 0 0 1.8 1.8h28.5a1.8 1.8 0 0 1 1.8 1.8v28.5a1.8 1.8 0 0 0 1.8 1.8h26.3a1.8 1.8 0 0 0 1.8-1.8v-28.7a1.8 1.8 0 0 1 1.8-1.8h28.5a1.8 1.8 0 0 0 1.8-1.8V441a1.8 1.8 0 0 0-1.8-1.8z"/><path class="cls-2" d="M1303 473.8l4.5-5.1c.5-.7 6.8-9 5.3-19.3-1.2-8.7-7.6-17-18.9-24.9l-9.3-6.5 5.7-9.3c.6-1.1 5.4-11.3.3-24.9s-20.4-32.4-65.5-50c-45.1 17.6-60.6 36.8-65.5 50s-.3 23.7.3 24.9l5.9 9.6-9.5 6.2c-11.4 8-17.8 16.4-19 25.2-1.4 10.5 5.2 18.9 5.3 19l4.5 5.3-2.4 6.5c-6.6 18.1-6 32.2 1.6 43.3 13.9 20 49.4 27 69.8 28.7v-52.7l-7.2-2.3-15.7-5.1-15.7-5.2-15.6-5.4.5-1.5a69.3 69.3 0 0 1 9-1.1c3-.2 5.9-.3 8.8-.3a148.8 148.8 0 0 1 17 1.2l4.2.6 4.1.7 8.2 1.6 2.6.6v-47l-.4-.2-10.7-5.1-10.7-5.2-10.6-5.4.7-1.5a44.8 44.8 0 0 1 7-.9c2.3-.2 4.4-.2 6.6-.1a82.8 82.8 0 0 1 12.4 1.4l5.9 1.3 8.5-39.9 9 40.9a88.3 88.3 0 0 1 9.7-2.4 84.1 84.1 0 0 1 12.4-1.4c2.2 0 4.3 0 6.6.1a45.1 45.1 0 0 1 7 .9l.7 1.5-10.6 5.4-10.7 5.2-10.7 5.1-4.4 2.1v45.1l2.6-.6 8.2-1.6 4.1-.7 4.2-.6a151.3 151.3 0 0 1 17-1.2c2.9 0 5.8 0 8.7.2a69.9 69.9 0 0 1 9 1.1l.5 1.5-15.6 5.4-15.7 5.2-15.7 5.1-7.2 2.3v52.7c20.4-1.7 55.9-8.8 69.8-28.7 7.7-11.1 8.2-25.2 1.6-43.3z"/></g><path class="cls-2" d="M30.1 1080.7v-11.2h57.8v11.2l-22.6 2.5 33.5 107.5 7.5 35.9 9-35.9 27.6-88.4-6.3-19-17-2.5v-11.2h59.7v11.2l-22.8 2.5 32.5 107.5 9 38.5 7.5-38.5 30.8-107.5-24.1-2.5v-11.2h54.5v11.2l-15.5 2.5-47.1 157.2h-17.8L149.1 1122l-36.6 118.5H95.8L46 1083.4zm317 40.7a49.5 49.5 0 0 1 18.6 23q5.8 14.4 5.8 32.7t-8.4 33.6a59 59 0 0 1-22.1 22.2 57.2 57.2 0 0 1-28.6 7.7q-19.8 0-32.5-8.6a49.1 49.1 0 0 1-18.5-23q-5.8-14.4-5.8-32.7t8.4-33.6a59 59 0 0 1 22-22.2 56.9 56.9 0 0 1 28.5-7.7q19.8 0 32.6 8.6zm-5.5 18.4q-8.9-14.9-27.9-14.9t-27.5 12.8q-9.7 12.8-9.7 37.5a90.1 90.1 0 0 0 3.8 27.2q3.8 12.1 12.1 19.1t21.1 7.1q17.7 0 27.4-12.9t9.7-37.5q-.1-23.6-9-38.5zm60.3 89.6v-97.9l-17.7-4v-10.3l29.1-3.6h.6l4.4 3.6v22.1h.1l6-7.2q5.6-6.8 16.8-13a46 46 0 0 1 22.6-6.2 21.6 21.6 0 0 1 6.9 1v21.4a9.7 9.7 0 0 0-4-2.1 20.1 20.1 0 0 0-6.5-1.1q-13.1 0-22.6 4.2a74.7 74.7 0 0 0-16.7 10.1v83.9h30.5v10.3h-67.9v-9.5zm84.1-83.5a60.3 60.3 0 0 1 22.9-24.3q14.9-8.9 34.6-8.9a108.8 108.8 0 0 1 24.4 2.8V1070l-23.9-2.1v-8.4l37.6-3.8h.6l4.3 3.3v169.2h14v8.9l-2.2.6-10.3 2.2a51.5 51.5 0 0 1-9.3.8 18.1 18.1 0 0 1-5.6-.7 5.2 5.2 0 0 1-3-2.8 14.5 14.5 0 0 1-1.1-6.3v-8.1a60 60 0 0 1-17.5 12.7 51.6 51.6 0 0 1-23.2 5.1 48.4 48.4 0 0 1-25-6.7q-11.4-6.7-18.4-20.4t-7-33.4a72.5 72.5 0 0 1 8.1-34.2zm81.9-13.1q-1.9-3.4-9.6-5.9a53.6 53.6 0 0 0-16.5-2.5 43.9 43.9 0 0 0-22.7 5.8q-9.8 5.8-15.3 17.8t-5.6 30.6q0 16.4 5.1 27.1t13.5 15.7a37 37 0 0 0 19 5 41.6 41.6 0 0 0 13.2-2.1 45.4 45.4 0 0 0 11.2-5.4 36.4 36.4 0 0 0 7.6-6.6zm53.8-22.8a76.9 76.9 0 0 1 29.4-29.9q18.7-10.7 41.7-10.7a134.5 134.5 0 0 1 22.6 1.9q10.9 1.9 22.2 4.5l3.7.9-1.9 36.6h-11.9l-4.9-25.9q-3.4-2.9-12.4-4.9a104.9 104.9 0 0 0-22-2 50.4 50.4 0 0 0-28.5 8.4q-12.6 8.4-19.9 24.5t-7.2 38.5a114.8 114.8 0 0 0 6.3 38.7q6.3 17.7 19.1 28.4t31.7 10.7q13.1 0 20.4-2.1a38.1 38.1 0 0 0 12.5-6.1l9.2-21 11.2 1.7-5.6 29.8a23.1 23.1 0 0 0-6.1.8l-7.5 2.3a130.4 130.4 0 0 1-15.7 4.2 98.2 98.2 0 0 1-18.9 1.5q-24.7 0-42.3-10.7a68.9 68.9 0 0 1-26.8-30.3q-9.2-19.6-9.2-45.7 0-24.8 10.8-44.1zm214 45.7q0-10.5-2.4-16.4a16 16 0 0 0-8.4-8.8q-6-2.8-16.8-2.8-19.3 0-40.4 11.1h-.1l-5.1-8.8q2.6-2.5 10.8-6.6a116.2 116.2 0 0 1 18.7-7.4 69 69 0 0 1 20.2-3.2q15.7 0 24.8 4.2a25.4 25.4 0 0 1 13.1 13.5q4 9.3 4 25.1v72.9h14.4v8.5q-13.5 3.6-21.6 3.6a19.9 19.9 0 0 1-5.7-.6 4.9 4.9 0 0 1-2.9-2.7 15.4 15.4 0 0 1-1-6.4v-8.4a128.4 128.4 0 0 1-10.3 8 66.6 66.6 0 0 1-13.2 6.9 44.3 44.3 0 0 1-16.7 3.2 46.7 46.7 0 0 1-19.4-3.9 31.4 31.4 0 0 1-13.9-12q-5.2-8.1-5.2-20.1 0-15.1 10.8-24.5t28.2-13.7a160.3 160.3 0 0 1 38.1-4.2zm0 17q-18.6 0-31.4 3.8t-19 10.7a22.9 22.9 0 0 0-6.3 15.9q0 13.2 6.7 19.2t18.1 6q6.6 0 15.6-4.4a82.9 82.9 0 0 0 16.3-10.5zm62 56.4v-97.6l-17.9-3.9v-10.9l29.3-3.6h.6l4.5 3.6v10.5l-.2 5.9a81.5 81.5 0 0 1 13.4-9.4 97.3 97.3 0 0 1 17.2-7.8 52 52 0 0 1 16.8-3.1q12.2 0 19.7 4.3a27.3 27.3 0 0 1 11.4 13.3 67.8 67.8 0 0 1 12.4-7.9 99.4 99.4 0 0 1 16.9-6.9 57.4 57.4 0 0 1 16.8-2.8q14.5 0 22.5 5.5t11.2 16.7q3.3 11.3 3.3 30.2v63.9l17.4 1.7v9.6h-51.4v-9.6l15.5-1.7v-63q0-14-2.1-22.3t-8.1-12.6q-6-4.3-17.3-4.3a47.7 47.7 0 0 0-17.8 3.8 71.4 71.4 0 0 0-16.1 8.8q2.4 10 2.4 26.7v63l17.4 1.7v9.6h-52.8v-9.6l16.6-1.7v-63.6q0-14.3-1.8-22.3t-7.2-12.2q-5.4-4.1-16.3-4.1-9 0-19.4 4.6a84.3 84.3 0 0 0-18.4 10.9v86.7l16.3 1.7v9.6H883v-9.6zm246.1 10.5a58.9 58.9 0 0 1-11.8-2.7l.4 20.5v25.9l25.5 2.4v10.5h-61.7v-10.5l17.7-2.3v-151.3l-18-3.8v-11.1l29.4-3.6h.6l4.2 3.6v14.6a68 68 0 0 1 17.9-13.4 52.1 52.1 0 0 1 48.5.9q11.4 6.4 18.4 19.9t7 33.5a73.7 73.7 0 0 1-8 34.4 61.1 61.1 0 0 1-22.8 24.5q-14.8 9-34 9a97 97 0 0 1-13.3-1zm-11.3-17.3q1.1 1.8 4.9 3.5a45.5 45.5 0 0 0 9.3 2.8 58.6 58.6 0 0 0 11.6 1.1 42.7 42.7 0 0 0 22.3-5.8q9.8-5.8 15.5-17.9t6-30q.1-16.7-4.9-27.7t-13.6-16.1a36.9 36.9 0 0 0-19.4-5.1 41.6 41.6 0 0 0-18.4 4.1 44.5 44.5 0 0 0-13.3 9.3zm169.6-.4v-132.3l-17.3-3v-17h71.7q24.3 0 38.4 4.4t20 12.7q5.9 8.3 5.9 20.7a40.7 40.7 0 0 1-4.7 19.7 38.5 38.5 0 0 1-13 14.1 47.5 47.5 0 0 1-19 7q14.6 0 25.5 4.7a37.9 37.9 0 0 1 17 13.6q6.1 9 6.1 21.4 0 52.5-73.6 52.5h-74.5v-15.7zm55.7 3.5q17.5 0 25.4-8.8t7.9-25.3q0-11.4-3.3-18.2a20.2 20.2 0 0 0-10.2-9.8q-6.9-3.1-18-3.1h-20v63.3q3.6 1.9 18.2 1.9zm-.1-82.7q13.4 0 19.4-7.9t6.1-23.3q0-14.2-6.5-20.8t-21.3-6.6a82.9 82.9 0 0 0-8.5.5q-5 .5-7.1 1v56.7q4.2.5 17.9.5zm92.7-.1a53.9 53.9 0 0 1 22-22.3q14.2-7.7 32.8-7.7 23.7 0 36.3 11.1t13.2 31.7q0 14.4-1.7 21.8h-72.5q1.3 20.7 10.2 30.7t23.4 10a57.7 57.7 0 0 0 17.6-2.9 62.6 62.6 0 0 0 14.9-6.6l6.5 13.9a48.4 48.4 0 0 1-11.6 8.4 84.5 84.5 0 0 1-17.6 7.1 71.6 71.6 0 0 1-19.9 2.9q-20.9 0-34.6-8a48.1 48.1 0 0 1-20.2-22.2q-6.5-14.3-6.5-33.4t7.7-34.5zm68.4 19.2v-8.1q0-12-4-18.6t-13.7-6.6a20.3 20.3 0 0 0-10.9 2.8q-4.5 2.8-7.2 10.1t-3 20.4zm61.4 62.3v-83.9l-13.6-4.5V1118l37.6-5.2h.6l6.6 4.9v6.5l-.6 17.7h.6q1.6-5.1 7.1-12a52.9 52.9 0 0 1 14.2-12.2 35.8 35.8 0 0 1 18.9-5.2 23.3 23.3 0 0 1 5.1.5 12.6 12.6 0 0 1 3.6 1.3v39.3a27.4 27.4 0 0 0-8-4.7 29.5 29.5 0 0 0-9.9-1.5 53.4 53.4 0 0 0-15.3 2.1q-7 2.1-10.6 5.2v69.3l26.5 2.2v14.2h-77.7v-14.3zm105-.2v-83.8l-13.8-4.4v-18.5l40.5-5.2h.6l6.2 4.9v8.2l-.2 5.2a68.8 68.8 0 0 1 20.4-12.6 64.7 64.7 0 0 1 25.3-5.2q13.9 0 22 4.9t11.6 15.7q3.5 10.8 3.5 29.3v61.2l13.5 2v14.8h-62.4v-14.6l11.8-2.1v-61q0-10.9-1.5-17t-5.3-8.9q-3.8-2.9-11-2.9a31.3 31.3 0 0 0-13 2.9 46.2 46.2 0 0 0-11.1 6.8v80.1l13 2.1v14.6h-63.1v-14.6zm-1077.3 238q-13.7 24.7-35.3 39.7t-44.3 17.7l-7.3-13.5q22.8-7.1 37-23.8a100.9 100.9 0 0 0 20.4-39.8 49 49 0 0 1-13.6 7.2 52.1 52.1 0 0 1-17.5 2.8 51.2 51.2 0 0 1-26.3-6.8 47.4 47.4 0 0 1-18.2-19.2q-6.6-12.4-6.6-28.7a65 65 0 0 1 7.5-30.9 56.3 56.3 0 0 1 21.8-22.5q14.4-8.4 34.1-8.4t34.1 9.2a56.1 56.1 0 0 1 20.9 25.3q7 16.1 7 36.9 0 30.1-13.7 54.8zm-24.7-54.9v-3.8q0-24.3-6.1-38.2t-19.7-14a17.5 17.5 0 0 0-13.2 5.7 35.9 35.9 0 0 0-8.1 14.8 66.1 66.1 0 0 0-2.7 18.9q0 21.6 6.7 32t17.9 10.4a40 40 0 0 0 13.8-2.3 31.2 31.2 0 0 0 10.1-5.6 178.9 178.9 0 0 0 1.3-17.9zm57.7 44a21.4 21.4 0 0 1 8.4-7.4 24.9 24.9 0 0 1 11.4-2.6 21.6 21.6 0 0 1 10.8 2.6 17.9 17.9 0 0 1 7 6.9 18.7 18.7 0 0 1 2.4 9.3q0 9.7-6.6 15.3t-17.1 5.6a19.6 19.6 0 0 1-9.4-2.4 19.4 19.4 0 0 1-7.2-6.7 17.6 17.6 0 0 1-2.8-9.8 19.1 19.1 0 0 1 3.1-10.8zm156.1 10.9q-13.7 24.7-35.3 39.7t-44.3 17.7l-7.3-13.5q22.8-7.1 37-23.8a100.9 100.9 0 0 0 20.4-39.8 49 49 0 0 1-13.6 7.2 52.1 52.1 0 0 1-17.5 2.8 51.2 51.2 0 0 1-26.3-6.8 47.4 47.4 0 0 1-18.2-19.2q-6.6-12.4-6.6-28.7a65 65 0 0 1 7.5-30.9 56.3 56.3 0 0 1 21.8-22.5q14.4-8.4 34.1-8.4t34.1 9.2a56.1 56.1 0 0 1 20.9 25.3q7 16.1 7 36.9 0 30.1-13.7 54.8zm-24.7-54.9v-3.8q0-24.3-6.1-38.2t-19.7-14a17.5 17.5 0 0 0-13.2 5.7 35.9 35.9 0 0 0-8.1 14.8 66.1 66.1 0 0 0-2.7 18.9q0 21.6 6.7 32t17.9 10.4a40 40 0 0 0 13.8-2.3 31.2 31.2 0 0 0 10.1-5.6 178.9 178.9 0 0 0 1.3-17.9zm57.6 44a21.4 21.4 0 0 1 8.4-7.4 24.9 24.9 0 0 1 11.4-2.6 21.6 21.6 0 0 1 10.8 2.6 17.9 17.9 0 0 1 7 6.9 18.7 18.7 0 0 1 2.4 9.3q0 9.7-6.6 15.3t-17.1 5.6a19.6 19.6 0 0 1-9.4-2.4 19.4 19.4 0 0 1-7.2-6.7 17.6 17.6 0 0 1-2.8-9.8 19.1 19.1 0 0 1 3.1-10.8zm105.7-24.9q19.4-21.6 19.4-42.3 0-10.7-6.8-16.9t-18.2-6.2a42.2 42.2 0 0 0-14.5 2.4 44.4 44.4 0 0 0-10.3 5.1q-3.8 2.7-9.8 7.5l-9.4-13.8q4.5-5.7 13.3-11.8a87.5 87.5 0 0 1 20.3-10.2 68.7 68.7 0 0 1 23.2-4.1q17.3 0 29 5.6t17.4 15a39.8 39.8 0 0 1 5.7 20.9q0 21.5-20.4 42.7t-53.1 40l62.9-5.6 9-17.2 15.9 3.3-6.2 40H889.9l-5.3-13.8q31.6-19 51-40.6zm92.9-59.4q9-16.8 24.3-25.2a69 69 0 0 1 33.6-8.3q29.5 0 44.8 18.4t15.1 53q0 24.4-9 41.6t-24 25.8a66.3 66.3 0 0 1-33.5 8.6q-19.3 0-32.8-8.7t-20.5-25q-7-16.3-7-38.9 0-24.5 9-41.3zm76.5 6.6q-2.4-12.9-7.7-19t-14.3-6.1q-12.9 0-18.9 13.9t-6 42.7q0 31.1 6 45.8t19.2 14.7q12.7 0 18.4-14.1t5.7-43.9q0-21.1-2.4-34zm82.6 89.1v-90.7a124.6 124.6 0 0 1-14.2 3 99.8 99.8 0 0 1-15 1.7l-2.9-17.7a108.6 108.6 0 0 0 26.6-9.2 110.5 110.5 0 0 0 22.5-13.9h.1l20.9 2.4v124.4l23.7 3.1v14.9h-88.7v-14.9zm91.1-101.7l-12.8 33.5-21.5-4.3 5.8-51.9h111.2l6.6 8.4-61.7 175.7-39-10.7q14.6-29 28.8-61.3t32.2-74.9l6.1-14.6zm-665.2 333.8v-9.2h20.8l3.7-39.7h-21.6v-9.2h22.3l2.6-30.5h12l-2.6 30.5h32.6l2.7-30.5h11.9l-2.7 30.5h21.5v9.2h-22.4l-3.5 39.7h22.1v9.2h-23l-2.8 32h-11.9l2.7-32h-32.8l-2.9 32h-12.1l3.1-32zm68.9-49h-32.6l-3.6 39.7h32.3zm45.7-11.5v-7.4h39v7.4l-14.3 2.1 16 55.1 6 24.6 5.9-24.8 18-64.3h14.9l18 64.3 5.8 25 6.4-24.7 15.8-54.9-13.9-2.2v-7.4h35.2v7.4l-9.9 2.2-27.9 90.3h-14.6l-19.5-66-5.1-22.3-4.4 22.3-18.9 66h-14.1l-28.9-90.4zm215-5.8a79.6 79.6 0 0 1 11.5 3.7l-.8 24.4h-9l-3.8-16.2q-1.2-5.2-15.5-5.2a28.7 28.7 0 0 0-16.3 4.6 29.7 29.7 0 0 0-10.7 13.3 50.5 50.5 0 0 0-3.8 20.4q0 14.1 4.2 23.7t11.5 14.3a30 30 0 0 0 16.6 4.7 48 48 0 0 0 14.8-2.3 43.9 43.9 0 0 0 11.6-5.4l2.9 5.6q-5.2 5.2-14.4 9a47.9 47.9 0 0 1-18.1 3.7q-14.2 0-24.3-6.4a40.4 40.4 0 0 1-15.2-17.5 58.6 58.6 0 0 1-5.1-24.9 57.6 57.6 0 0 1 5.7-25.6 44.4 44.4 0 0 1 16.9-18.6q11.2-7 27.4-7a56 56 0 0 1 13.9 1.7zm14.6-36.7v-6.6l26.3-3.1h.4l3.3 2.5v55.2a49.7 49.7 0 0 1 13.5-9.3 39.8 39.8 0 0 1 17.4-3.7 39.2 39.2 0 0 1 19.5 5q9 5 14.4 15.5t5.4 26.3a57.5 57.5 0 0 1-6.3 26.8 47.8 47.8 0 0 1-18 19.2q-11.7 7.1-27.1 7.1a92.1 92.1 0 0 1-14.9-1.2 84.7 84.7 0 0 1-12.3-2.8q-5-1.6-6.2-2.9V1593zm30 119.9q1.4 2.8 7.2 4.4a48.7 48.7 0 0 0 13 1.6 33.5 33.5 0 0 0 17.8-4.7q7.7-4.7 12-14.2t4.3-23.6q0-12.6-4-21t-10.6-12.3a28.8 28.8 0 0 0-14.9-3.9 30 30 0 0 0-14.3 3.6 38.5 38.5 0 0 0-10.6 7.8zm93.3 6.4v-76.6l-13.9-3.2v-8l22.8-2.8h.4l3.4 2.8v17.3h.1l4.7-5.7q4.4-5.3 13.1-10.2a36 36 0 0 1 17.7-4.9 16.9 16.9 0 0 1 5.4.8v16.8a7.6 7.6 0 0 0-3.2-1.7 15.7 15.7 0 0 0-5.1-.8 43.5 43.5 0 0 0-17.7 3.3 58.5 58.5 0 0 0-13.1 7.9v65.7h23.9v8.1h-52.9v-7.6zm77.6-.2v-76.4l-14-3.5v-8.1l22.9-2.8h.4l3.5 2.8v8.2l-.2 4.6a62.5 62.5 0 0 1 10.6-7.4 76.3 76.3 0 0 1 13.8-6.1 43.3 43.3 0 0 1 13.6-2.4q11.4 0 17.7 4.4t8.7 13.2q2.4 8.8 2.4 23.7v49.8l13.5 1.3v7.5h-40.4v-7.4l12.4-1.3v-49.8q0-11-1.5-17.4a16 16 0 0 0-5.9-9.5q-4.4-3.2-12.9-3.2a39.3 39.3 0 0 0-15.5 3.6 66.1 66.1 0 0 0-14.5 8.5v67.8l13.1 1.4v7.5h-39.7v-7.6z" id="Text-2" data-name="Text"/></g></svg>