<svg xmlns="http://www.w3.org/2000/svg" width="3600" height="1000"><defs><style>.cls-1{fill:#50afa0;}.cls-2{fill:#495057;}.cls-3{fill:#868e96;}.cls-4{fill:#f03e3e;}.cls-5{fill:#fff;}</style></defs><g id="text_desktop" data-name="text desktop"><g id="logo-3" data-name="logo"><g id="Tree_1" data-name="Tree 1"><path class="cls-1" d="M1640.4 797.3l-3.5-2.2-3.1-1.7-16.4 22.2q1.5 1.4 6.9 5.4t9.9 2.5q4.7-1.4 9.1-7.4t3.5-10q-.6-4.5-6.4-8.8zM1620 828.3l-7.8-5.8-18.3 24.8q.8 1.8 6.5 6.1t12.5 3.9q5.6-1.1 10.4-7.6a20.4 20.4 0 0 0 4-8.1 9.8 9.8 0 0 0-1.1-6.8 21.8 21.8 0 0 0-6.2-6.5zM1865.8 845.3q-4.1-3-11.6-1.3a30.3 30.3 0 0 0-6.8 2.2l7 31.5a24.3 24.3 0 0 0 4.5-.8l4.1-.9a11.1 11.1 0 0 0 8.2-6.4q2.3-5 .4-13.8t-5.8-10.5z"/><path class="cls-1" d="M2134.1 564.5l8.9 36.4h-36l8.9-36.4c-21.5-1.8-74.6-9.8-85.7-46.8h-.1a240.8 240.8 0 1 1-469.2 103.9q-1.4-8.8-2.1-17.7h-120.7a361.1 361.1 0 0 0 721.8-19.2v-24.1a192.5 192.5 0 0 1-25.8 3.9zm-474.9 260.8a19.8 19.8 0 0 1-7.6 6.4 18.7 18.7 0 0 1-9.2 1.7 23.2 23.2 0 0 1-9.5-2.7 31.5 31.5 0 0 1 8.6 9.2 18.5 18.5 0 0 1 2.7 10.3 18.2 18.2 0 0 1-3.8 10.1q-15.2 20.5-44-.8l-7.6-5.6-7.4-5.5-14.2-10.5 4.6-6.1 7.7 4L1618 784l-5.9-6.2 4.9-6.6 13.8 10.2 7.9 5.8 6.4 4.7q9.5 7 13.7 12.8t4.2 10.8a16.9 16.9 0 0 1-3.8 9.8zm110.4 36.7l-8.7-1.8-1.4-11.9-21.6-4.6-5.9 27.8 13.6 2.9 3.9-8.6 7.8 1.7-5.8 27.2-7.8-1.7.2-10-13.7-2.9-6.1 28.7 24.1 5.1 9.7-12.9 8.6 4.5-7.1 19.6-63.6-13.5 1.5-7.2 8.6.4 13.5-63.8-8.2-3.4 1.6-7.5 59.2 12.6zm122.4 51.6q-1.7.4-4.1-2.8t-6.8-10q-3.3-5.3-5.6-8.7a48.7 48.7 0 0 0-4.8-6 10.6 10.6 0 0 0-4.7-3.2l-9.9 2.2 5.8 26.3 10-.9 1.6 7.2-36.1 8-1.6-7.2 8-3.2-14-63.3-8.3.3-1.8-8 16.6-3.7 8.4-1.9 3.6-.8 6.2-1.4q11.5-2.6 18.9-1.8t11.4 4.7q4.1 4 5.8 11.6a25.7 25.7 0 0 1 .3 9.5 23.5 23.5 0 0 1-3.5 9.2 21.1 21.1 0 0 1-7.5 7 16.4 16.4 0 0 1 6.8 3.1 36.5 36.5 0 0 1 6 5.5q2.7 3.1 6.1 7.5t5.4 6.5q1.9 2 3.5 2.1l3.6.4 1.6 7.2zm135-74.5l-58.2-19-15.2-7 36 44.9 9.8-6.1 4.6 5.7-24.1 19.3-4.6-5.7 6.1-6.6-40.8-51-7.9 4.3-4.8-6 21.3-17.1 55 17.8 12.6 6.2-32.4-40.4-8.4 4.9-4.8-6 22.4-18 4.8 6-5.8 6.6 46.3 57.7z"/><path class="cls-2" d="M1930.3 351.6s-15-26.2 12.2-55.6H1437v35l85.8.8V604h36v-38c9.5-124.2 113.3-222 240-222a239.7 239.7 0 0 1 112.1 27.7c3.7-6.6 9.8-13.4 19.4-20.1zM1595 397.9a277.8 277.8 0 0 0-36.2 49.9V332.2l36.3.4zm24-23.3v-41.8l63.7.6a276.5 276.5 0 0 0-63.7 41.2zM2085.4 339.9c10.4-6.5 23.4-12.8 39.6-18.9a238.9 238.9 0 0 1 34 15.5V296h-89.4c16 17.3 17.3 33.5 15.8 43.9z"/><path class="cls-3" d="M2081 116h-114l-10 16h134l-10-16zM1540 214c0-.8.1-1.4.1-2.1s.1-1.6.2-2.4l.3-2.4c.1-.8.2-1.6.4-2.4a58.8 58.8 0 0 1 2.5-9.2 24.6 24.6 0 0 1 4.9-8.3 18.5 18.5 0 0 1 7.7-5.2c-4 0-12 2-18 8s-8.5 12.2-9.9 20.3a177.5 177.5 0 0 0-2.2 17.7l14-14z"/><path class="cls-3" d="M1550 188.4a22.5 22.5 0 0 0-2.6 8.1 54 54 0 0 0-.5 8.7 32.5 32.5 0 0 0 .4 4.2l.3 2.2c.1.7.3 1.5.4 2v.4h44a37 37 0 0 0-8-24c-5.8-7.1-18-8-18-8h-6v-32h-4v32a17.5 17.5 0 0 0-6 6.4zM1592 222h-48l-18 6v18.4l66-7.5V222zM1630 160.4a22.5 22.5 0 0 0-2.6 8.1 54 54 0 0 0-.5 8.7 32.5 32.5 0 0 0 .4 4.2l.3 2.2c.1.7.3 1.5.4 2v.4h44a37 37 0 0 0-8-24c-5.8-7.1-18-8-18-8h-6v-32h-4v32a17.5 17.5 0 0 0-6 6.4z"/><path class="cls-3" d="M1620 186c0-.8.1-1.4.1-2.1s.1-1.6.2-2.4l.3-2.4c.1-.8.2-1.6.4-2.4a58.8 58.8 0 0 1 2.5-9.2 24.6 24.6 0 0 1 4.9-8.3 18.5 18.5 0 0 1 7.7-5.2c-4 0-12 2-18 8s-8.5 12.2-9.9 20.3a177.5 177.5 0 0 0-2.2 17.7l14-14zM1757.8 56.1a43.7 43.7 0 0 1 .5-5.3 42.9 42.9 0 0 1 1.1-5.1 12.5 12.5 0 0 1 2.4-4.8 9.7 9.7 0 0 1 4.2-3h-2a13.9 13.9 0 0 0-5.9 3.6c-3.1 2.9-4.3 6.5-5 10.6a101.7 101.7 0 0 0-1 10.8l5.8-6.8z"/><path class="cls-3" d="M1762.7 41.6a11.4 11.4 0 0 0-1.3 4.6 40.5 40.5 0 0 0-.1 4.9 45.9 45.9 0 0 0 .4 4.8h24.3s-.5-8.6-5-14c-2.9-3.5-9-4-9-4h-6a9.2 9.2 0 0 0-3.3 3.7zM1729.6 132.6c.3-3.3.5-6.5 1-10.1a117.7 117.7 0 0 1 5.1-19.7l1.8-4.8 1.1-2.4 1.2-2.3a48.2 48.2 0 0 1 5.9-8.4A37.5 37.5 0 0 1 1762 74a35.1 35.1 0 0 0-12.3 13.8 42.1 42.1 0 0 0-3.2 8.4c-.2.7-.4 1.4-.5 2.2s-.3 1.4-.4 2.2-.5 3-.6 4.5a106.2 106.2 0 0 0-.3 18.2c.3 2.7.6 5.9 1 9s.5 3.8.8 5.7h87.5s4-30-16-48c-10.1-9.1-24.9-13.5-32-15.2V60h-26l-8 3v12.4a57.1 57.1 0 0 0-26 14.6c-12 12-16.9 24.3-19.8 40.6S1702 162 1702 162l27.1-20.3c.1-3.1.3-6 .5-9.1zM1834 206l58.9-25.5L1918 140l-60 24-24 42zM1932 190l-14-50-13 50v90h56.5c11.2-7.5 25.7-15 44.5-22 18.8 7 33.3 14.5 44.5 22H2160v-90h-228z"/><path class="cls-3" d="M1945 180h215l-25-40h-217l27 40zM1738 216l46-26h50v-34h-96l-36 6 .1 52H1671.9l.1-20h-48l-18 6v37.4l65-7.4v15l-159 3 8 32h367v-81.1l-53 7.1h-50l-46 10z"/><path class="cls-4" d="M1622 122h18v12h-18zM1542 150h18v12h-18z"/><path class="cls-2" d="M2049.3 414.6s-16.6-28.9 16.5-60l5.5-8.9c.6-1.1 5.4-11.3.3-24.9s-20.4-32.4-65.5-50c-45.1 17.6-60.6 36.8-65.5 50s-.3 23.7.3 24.9l5.9 9.6-9.5 6.2c-7.4 5.2-12.7 10.5-15.8 16.1q7.2 4.2 14 9a75.9 75.9 0 0 1 61.7-3.6v-9.3l-.4-.2-10.7-5.1-10.7-5.2-10.6-5.4.7-1.5a44.8 44.8 0 0 1 7-.9c2.3-.2 4.4-.2 6.6-.1a82.8 82.8 0 0 1 12.4 1.4l5.9 1.3 8.6-40 9 40.9a88.3 88.3 0 0 1 9.7-2.4 84.1 84.1 0 0 1 12.4-1.4c2.2 0 4.3 0 6.6.1a45.1 45.1 0 0 1 7 .9l.7 1.5-10.6 5.4-10.7 5.2-10.7 5.1-4.4 2.1v17.2a76.7 76.7 0 0 1 24.5 29.9 81.3 81.3 0 0 1 9.8-7.9zM1592.2 584.7a206.5 206.5 0 0 0 116.4 185.9l-98.5-269.9a205.7 205.7 0 0 0-17.9 84zM1802.4 602.8l-62 180.1a206.6 206.6 0 0 0 126.9-3.3 19.3 19.3 0 0 1-1.5-2.8zM2005.3 584.7c-.5-28-3.4-43.6-8.7-59.4a26.5 26.5 0 0 0-12.7 9.3c-7.3 9.7-12.9 28.2-18.2 46.2l-63.1 182.4c61.4-35.7 104-102.3 102.7-178.5z"/><path class="cls-2" d="M1906.7 497a76 76 0 0 1 1.3-87.6 206.5 206.5 0 0 0-281.8 61.8l13.3.3c21.6 0 55-2.6 55-2.6 11.1-.7 12.4 15.7 1.3 17 0 0-11.2 1.3-23.6 2l75.2 223.7 45.2-135.5-32.2-88.2c-11.1-.7-21.7-2-21.7-2-11.1-.7-9.8-17.7 1.3-17 0 0 34.1 2.6 54.4 2.6s55-2.6 55-2.6c11.1-.7 12.4 15.7 1.3 17 0 0-11.2 1.3-23.6 2l74.6 222 20.6-68.8c8.9-28.6 15.7-49.1 15.7-66.8 0-25.5-8.7-50.9-24.4-68.4a74.6 74.6 0 0 1-6.9-8.9z"/><path class="cls-4" d="M2029.3 435.7a63.1 63.1 0 1 0 .5 35.3c-3.8-7.2-8.3-20.4-.5-35.3z"/><path class="cls-5" d="M2014.8 439.2h-28.5a1.8 1.8 0 0 1-1.8-1.8V409a1.8 1.8 0 0 0-1.8-1.8h-26.3a1.8 1.8 0 0 0-1.8 1.8v28.5a1.8 1.8 0 0 1-1.8 1.8h-28.5a1.8 1.8 0 0 0-1.8 1.8v26.3a1.8 1.8 0 0 0 1.8 1.8h28.5a1.8 1.8 0 0 1 1.8 1.8v28.5a1.8 1.8 0 0 0 1.8 1.8h26.3a1.8 1.8 0 0 0 1.8-1.8v-28.7a1.8 1.8 0 0 1 1.8-1.8h28.5a1.8 1.8 0 0 0 1.8-1.8V441a1.8 1.8 0 0 0-1.8-1.8z"/><path class="cls-2" d="M2203 473.8l4.5-5.1c.5-.7 6.8-9 5.3-19.3-1.2-8.7-7.6-17-18.9-24.9l-9.3-6.5 5.7-9.3c.6-1.1 5.4-11.3.3-24.9s-20.4-32.4-65.5-50c-45.1 17.6-60.6 36.8-65.5 50s-.3 23.7.3 24.9l5.9 9.6-9.5 6.2c-11.4 8-17.8 16.4-19 25.2-1.4 10.5 5.2 18.9 5.3 19l4.5 5.3-2.4 6.5c-6.6 18.1-6 32.2 1.6 43.3 13.9 20 49.4 27 69.8 28.7v-52.7l-7.2-2.3-15.7-5.1-15.7-5.2-15.6-5.4.5-1.5a69.3 69.3 0 0 1 9-1.1c3-.2 5.9-.3 8.8-.3a148.8 148.8 0 0 1 17 1.2l4.2.6 4.1.7 8.2 1.6 2.6.6v-47l-.4-.2-10.7-5.1-10.7-5.2-10.6-5.4.7-1.5a44.8 44.8 0 0 1 7-.9c2.3-.2 4.4-.2 6.6-.1a82.8 82.8 0 0 1 12.4 1.4l5.9 1.3 8.5-39.9 9 40.9a88.3 88.3 0 0 1 9.7-2.4 84.1 84.1 0 0 1 12.4-1.4c2.2 0 4.3 0 6.6.1a45.1 45.1 0 0 1 7 .9l.7 1.5-10.6 5.4-10.7 5.2-10.7 5.1-4.4 2.1v45.1l2.6-.6 8.2-1.6 4.1-.7 4.2-.6a151.3 151.3 0 0 1 17-1.2c2.9 0 5.8 0 8.7.2a69.9 69.9 0 0 1 9 1.1l.5 1.5-15.6 5.4-15.7 5.2-15.7 5.1-7.2 2.3v52.7c20.4-1.7 55.9-8.8 69.8-28.7 7.7-11.1 8.2-25.2 1.6-43.3z"/></g></g><g id="Text-3" data-name="Text"><path class="cls-2" d="M64.4 308.6v-11.2h57.8v11.2l-22.6 2.5 33.5 107.5 7.5 35.9 9-35.9 27.6-88.4-6.3-19-17-2.5v-11.3h59.7v11.2l-22.6 2.6 32.5 107.5 9 38.5 7.5-38.5 30.8-107.5-24.1-2.5v-11.3H301v11.2l-15.5 2.5-47 157.3h-17.9l-37.2-118.6-36.6 118.6h-16.7L80.3 311.3zM381.4 349.2a49.5 49.5 0 0 1 18.6 23q5.8 14.4 5.8 32.7t-8.4 33.6a59 59 0 0 1-22.1 22.2 57.2 57.2 0 0 1-28.6 7.7q-19.8 0-32.5-8.6a49.1 49.1 0 0 1-18.5-23q-5.8-14.4-5.8-32.7t8.4-33.6a59 59 0 0 1 22-22.2 56.9 56.9 0 0 1 28.5-7.7q19.8.1 32.6 8.6zm-5.5 18.4q-8.9-14.9-27.9-14.9t-27.5 12.8q-9.7 12.8-9.7 37.5a90.1 90.1 0 0 0 3.8 27.2q3.8 12.1 12.1 19.1t21.1 7.1q17.7 0 27.4-12.9t9.7-37.5q-.1-23.5-9-38.4zM436.2 457.3v-97.9l-17.7-4V345l29.1-3.6h.6l4.4 3.6v22.1h.1l6-7.2q5.6-6.8 16.8-13a46 46 0 0 1 22.6-6.2 21.6 21.6 0 0 1 6.9 1v21.4a9.7 9.7 0 0 0-4-2.1 20.1 20.1 0 0 0-6.5-1.1q-13.1 0-22.6 4.2a74.7 74.7 0 0 0-16.7 10.1V458h30.5v10.3h-67.9v-9.5zM520.3 373.8a60.3 60.3 0 0 1 22.9-24.3q14.9-8.9 34.6-8.9a108.8 108.8 0 0 1 24.4 2.8v-45.5l-23.9-2.1v-8.4l37.6-3.8h.6l4.3 3.3V456h14v8.9l-2.2.6-10.3 2.2a51.5 51.5 0 0 1-9.3.8 18.1 18.1 0 0 1-5.6-.7 5.2 5.2 0 0 1-3-2.8 14.5 14.5 0 0 1-1.1-6.3v-8.1a60 60 0 0 1-17.5 12.7 51.6 51.6 0 0 1-23.2 5.1 48.4 48.4 0 0 1-25-6.7q-11.4-6.7-18.4-20.4t-7-33.4a72.5 72.5 0 0 1 8.1-34.1zm81.9-13.1q-1.9-3.4-9.6-5.9a53.6 53.6 0 0 0-16.5-2.5 43.9 43.9 0 0 0-22.7 5.8q-9.8 5.8-15.3 17.8t-5.6 30.6q0 16.4 5.1 27.1t13.5 15.7a37 37 0 0 0 19 5 41.6 41.6 0 0 0 13.2-2.1 45.4 45.4 0 0 0 11.2-5.4 36.4 36.4 0 0 0 7.6-6.6zM656 337.9a76.9 76.9 0 0 1 29.4-29.9q18.7-10.7 41.7-10.7a134.5 134.5 0 0 1 22.6 1.9q10.9 1.9 22.2 4.5l3.7.9-1.9 36.6h-11.9l-4.9-25.9q-3.4-2.9-12.4-4.9a104.9 104.9 0 0 0-22-2 50.4 50.4 0 0 0-28.5 8.4q-12.6 8.4-19.9 24.5t-7.2 38.5a114.7 114.7 0 0 0 6.3 38.7q6.3 17.7 19.1 28.4t31.7 10.7q13.1 0 20.4-2.1a38.1 38.1 0 0 0 12.5-6.1l9.2-21 11.2 1.7-5.6 29.8a23.1 23.1 0 0 0-6.1.8l-7.5 2.3a130.4 130.4 0 0 1-15.7 4.2 98.2 98.2 0 0 1-18.9 1.5q-24.7 0-42.3-10.7a68.9 68.9 0 0 1-26.8-30.3q-9.2-19.6-9.2-45.7 0-24.8 10.8-44.1zM870 383.6q0-10.5-2.4-16.4a16 16 0 0 0-8.4-8.8q-6-2.8-16.8-2.8-19.3 0-40.4 11.1h-.1l-5.1-8.8q2.6-2.5 10.8-6.6a116.2 116.2 0 0 1 18.7-7.4 69 69 0 0 1 20.2-3.2q15.7 0 24.8 4.2a25.4 25.4 0 0 1 13.1 13.5q4 9.3 4 25.1v72.9h14.4v8.5q-13.5 3.6-21.6 3.6a19.9 19.9 0 0 1-5.7-.6 4.9 4.9 0 0 1-2.9-2.7 15.4 15.4 0 0 1-1-6.4v-8.4a128.6 128.6 0 0 1-10.3 8 66.6 66.6 0 0 1-13.2 6.9 44.3 44.3 0 0 1-16.7 3.2 46.7 46.7 0 0 1-19.4-3.9 31.4 31.4 0 0 1-13.9-12q-5.2-8.1-5.2-20.1 0-15.1 10.8-24.5t28.2-13.7A160.3 160.3 0 0 1 870 390zm0 17q-18.6 0-31.4 3.8t-19 10.7a22.9 22.9 0 0 0-6.3 15.9q0 13.2 6.7 19.2t18.1 6q6.6 0 15.6-4.4a82.8 82.8 0 0 0 16.3-10.3zM932 457v-97.6l-17.9-3.9v-10.9l29.3-3.6h.6l4.5 3.6v10.5l-.2 5.9a81.5 81.5 0 0 1 13.4-9.4 97.3 97.3 0 0 1 17.2-7.8 52 52 0 0 1 16.8-3.1q12.2 0 19.7 4.3a27.3 27.3 0 0 1 11.4 13.3 67.9 67.9 0 0 1 12.4-7.9 99.3 99.3 0 0 1 16.9-6.9 57.4 57.4 0 0 1 16.8-2.8q14.5 0 22.5 5.5t11.2 16.7q3.3 11.3 3.3 30.2V457l17.4 1.7v9.6h-51.4v-9.6l15.5-1.7v-63q0-14-2.1-22.3t-8.1-12.6q-6-4.3-17.3-4.3a47.7 47.7 0 0 0-17.8 3.8 71.4 71.4 0 0 0-16.1 8.8q2.4 10 2.4 26.7v63l17.4 1.7v9.6H997v-9.6l16.6-1.7v-63.7q0-14.3-1.8-22.3t-7.2-12.2q-5.4-4.1-16.3-4.1-9 0-19.4 4.6a84.3 84.3 0 0 0-18.4 10.9V457l16.3 1.7v9.6h-49.5v-9.6zM1178.1 467.5a58.9 58.9 0 0 1-11.8-2.7l.4 20.5v25.9l25.5 2.4v10.5h-61.7v-10.6l17.7-2.3V360l-18-3.8V345l29.4-3.6h.6l4.2 3.6v14.6a68 68 0 0 1 17.9-13.4 52.1 52.1 0 0 1 48.5.9q11.4 6.4 18.4 19.9t7 33.5a73.7 73.7 0 0 1-8 34.4 61.1 61.1 0 0 1-22.8 24.5q-14.8 9-34 9a97 97 0 0 1-13.3-.9zm-11.3-17.3q1.1 1.8 4.9 3.5a45.5 45.5 0 0 0 9.3 2.8 58.6 58.6 0 0 0 11.6 1.1 42.7 42.7 0 0 0 22.3-5.8q9.8-5.8 15.5-17.9t6-30q.1-16.7-4.9-27.7t-13.7-16.2a36.9 36.9 0 0 0-19.4-5.1 41.6 41.6 0 0 0-18.4 4.1 44.5 44.5 0 0 0-13.3 9.3zM593.6 745.4V572.8l-22.6-4v-22.1h93.5q31.6 0 50 5.8t26.1 16.5q7.7 10.8 7.7 27a53 53 0 0 1-6.2 25.7 50.2 50.2 0 0 1-17 18.4 62 62 0 0 1-24.8 9.2q19 0 33.3 6.1t22.4 17.8q7.9 11.7 7.9 28 0 68.4-95.9 68.4h-97.2v-20.5zm72.7 4.6q22.9 0 33.2-11.5t10.3-33.1q0-14.9-4.3-23.7a26.3 26.3 0 0 0-13.3-12.8q-9-4-23.5-4h-26.1v82.5q4.7 2.6 23.7 2.6zm-.1-107.8q17.4 0 25.3-10.4t7.9-30.4q0-18.6-8.5-27.2t-27.8-8.6a108.5 108.5 0 0 0-11.1.7q-6.5.7-9.3 1.3v73.9q5.6.7 23.5.7zM787 641.9a70.3 70.3 0 0 1 28.6-29q18.5-10.1 42.8-10.1 30.9 0 47.4 14.4t17.2 41.4q0 18.7-2.2 28.4h-94.6q1.8 27 13.3 40t30.5 13a75.3 75.3 0 0 0 22.9-3.8 81.7 81.7 0 0 0 19.4-8.6l8.5 18.2q-5.1 5.4-15.2 11a110.2 110.2 0 0 1-23 9.3 93.5 93.5 0 0 1-26 3.7q-27.2 0-45.1-10.4a62.7 62.7 0 0 1-26.3-29q-8.4-18.6-8.4-43.6t10.2-44.9zm89.3 25v-10.5q0-15.7-5.3-24.3t-17.9-8.7a26.4 26.4 0 0 0-14.2 3.6q-5.9 3.6-9.4 13.2t-4 26.6zM956.3 748.3V638.8l-17.7-5.9v-23.1l49.1-6.7h.7l8.6 6.4v8.5l-.7 23.1h.7q2-6.6 9.3-15.7a69 69 0 0 1 18.5-15.9 46.7 46.7 0 0 1 24.6-6.8 30.4 30.4 0 0 1 6.7.7 16.5 16.5 0 0 1 4.8 1.7v51.2a35.8 35.8 0 0 0-10.5-6.1 38.5 38.5 0 0 0-13-1.9 69.6 69.6 0 0 0-19.9 2.7q-9.1 2.7-13.8 6.8v90.3l34.6 2.9v18.6H936.9v-18.7zM1093.4 748V638.8l-18-5.7v-24.2l52.9-6.7h.7l8.1 6.4v10.7l-.3 6.7q10.4-9.7 26.6-16.5a84.4 84.4 0 0 1 33-6.8q18.2 0 28.6 6.4t15.1 20.5q4.6 14.1 4.6 38.3v79.8l17.6 2.6v19.3h-81.4v-19l15.4-2.7v-79.6q0-14.2-1.9-22.1t-6.9-11.7q-5-3.7-14.4-3.7a40.8 40.8 0 0 0-16.9 3.8 60.3 60.3 0 0 0-14.4 8.9v104.4l17 2.7v19h-82.3v-19zM2387.5 427.5v-11.8h26.6l4.7-50.8h-27.5v-11.8h28.5l3.4-39h15.3l-3.4 39h41.7l3.5-39h15.2l-3.5 39h27.5v11.8h-28.6l-4.5 50.8h28.2v11.8h-29.4l-3.6 40.9h-15.2l3.5-40.9H2428l-3.7 40.9h-15.5l3.9-40.9zm88-62.6h-41.7l-4.6 50.8h41.3zM2534.1 350.2v-9.4h49.9v9.4l-18.3 2.7 20.4 70.4 7.6 31.4 7.5-31.6 23-82.2h19.1l23 82.1 7.4 32 8.2-31.6 20.2-70.2-17.7-2.9v-9.4h45v9.4l-12.7 2.8-35.7 115.4h-18.8l-24.8-84.5-6.5-28.5-5.6 28.5-24.1 84.3h-18l-36.9-115.5zM2808.8 342.9a101.6 101.6 0 0 1 14.7 4.8l-1 31.2H2811l-4.8-20.7q-1.6-6.6-19.8-6.6a36.7 36.7 0 0 0-20.8 5.9 37.9 37.9 0 0 0-13.7 16.9q-4.8 11-4.8 26 0 18.1 5.4 30.3t14.7 18.3a38.3 38.3 0 0 0 21.2 6 61.3 61.3 0 0 0 18.9-2.9 56.1 56.1 0 0 0 14.9-6.9l3.7 7.2q-6.6 6.7-18.4 11.4a61.2 61.2 0 0 1-23.2 4.8q-18.2 0-31.1-8.2a51.7 51.7 0 0 1-19.5-22.4q-6.6-14.2-6.6-31.9a73.6 73.6 0 0 1 7.2-32.7 56.8 56.8 0 0 1 21.6-23.8q14.4-8.9 35-8.9a71.5 71.5 0 0 1 17.9 2.2zM2827.4 295.9v-8.4l33.6-3.9h.4l4.3 3.3v70.5a63.5 63.5 0 0 1 17.2-11.9 50.8 50.8 0 0 1 22.2-4.7 50 50 0 0 1 24.9 6.4q11.5 6.4 18.4 19.9t7 33.6a73.4 73.4 0 0 1-8 34.3 61.1 61.1 0 0 1-23 24.6q-14.9 9.1-34.6 9.1a117.6 117.6 0 0 1-19-1.5 108.1 108.1 0 0 1-15.7-3.6q-6.4-2.1-8-3.8V297.9zm38.3 153.2q1.8 3.6 9.2 5.6a62.3 62.3 0 0 0 16.6 2.1 42.8 42.8 0 0 0 22.7-6q9.8-6 15.4-18.2t5.6-30.1q0-16.1-5.1-26.8t-13.6-15.8a36.8 36.8 0 0 0-19.1-5 38.3 38.3 0 0 0-18.2 4.6 49.2 49.2 0 0 0-13.5 10zM2985 457.3v-97.9l-17.7-4V345l29.1-3.6h.6l4.4 3.6v22.1h.1l6-7.2q5.6-6.8 16.8-13a46 46 0 0 1 22.6-6.2 21.6 21.6 0 0 1 6.9 1v21.4a9.7 9.7 0 0 0-4-2.1 20.1 20.1 0 0 0-6.5-1.1q-13.1 0-22.6 4.2a74.7 74.7 0 0 0-16.7 10.1V458h30.5v10.3h-67.6v-9.5zM3084.1 457v-97.6l-17.9-4.5v-10.3l29.3-3.6h.6l4.5 3.6v10.5l-.2 5.9a79.9 79.9 0 0 1 13.5-9.4 97.5 97.5 0 0 1 17.6-7.8 55.4 55.4 0 0 1 17.4-3.1q14.6 0 22.6 5.6t11.1 16.9q3.1 11.3 3.1 30.3v63.7l17.3 1.6v9.6h-51.7v-9.6l15.8-1.6v-63.6q0-14.1-2-22.2t-7.6-12.2q-5.6-4.1-16.5-4.1-9.2 0-19.8 4.6a84.4 84.4 0 0 0-18.6 10.8V457l16.7 1.7v9.6h-50.8v-9.6zM2532.2 745.4q-17.9 32.2-46.1 51.8t-57.8 23.1l-9.5-17.6q29.7-9.2 48.3-31.1t26.6-51.9a63.8 63.8 0 0 1-17.7 9.4 68 68 0 0 1-22.9 3.6q-19.2 0-34.4-8.9a61.8 61.8 0 0 1-23.7-25q-8.6-16.2-8.6-37.4a84.8 84.8 0 0 1 9.7-40.4 73.5 73.5 0 0 1 28.5-29.4q18.7-11 44.5-11t44.5 11.9q18.2 11.9 27.2 33t9.1 48.1q.2 39.6-17.7 71.8zm-32.2-71.6v-5q0-31.6-7.9-49.9t-25.6-18.2a22.9 22.9 0 0 0-17.2 7.5q-7.1 7.5-10.6 19.3a86.2 86.2 0 0 0-3.5 24.6q0 28.1 8.8 41.7t23.3 13.6a52.2 52.2 0 0 0 17.9-3 40.8 40.8 0 0 0 13.1-7.3 233.3 233.3 0 0 0 1.7-23.3zM2575.1 731.2a27.9 27.9 0 0 1 10.9-9.7 32.5 32.5 0 0 1 14.9-3.4 28.2 28.2 0 0 1 14.1 3.4 23.4 23.4 0 0 1 9.1 9 24.4 24.4 0 0 1 3.1 12.1q0 12.6-8.6 19.9t-22.3 7.3a25.6 25.6 0 0 1-12.3-3.1 25.3 25.3 0 0 1-9.4-8.7 23 23 0 0 1-3.6-12.7 24.9 24.9 0 0 1 4.1-14.1zM2778.8 745.4q-17.9 32.2-46.1 51.8t-57.8 23.1l-9.5-17.6q29.7-9.2 48.3-31.1t26.6-51.9a63.8 63.8 0 0 1-17.7 9.4 68 68 0 0 1-22.9 3.6q-19.2 0-34.4-8.9a61.8 61.8 0 0 1-23.7-25q-8.6-16.2-8.6-37.4a84.8 84.8 0 0 1 9.7-40.4 73.5 73.5 0 0 1 28.5-29.4q18.7-11 44.5-11t44.5 11.9q18.2 11.9 27.2 33t9.1 48.1q.2 39.6-17.7 71.8zm-32.2-71.6v-5q0-31.6-7.9-49.9t-25.7-18.2a22.9 22.9 0 0 0-17.2 7.5q-7.1 7.5-10.6 19.3a86.2 86.2 0 0 0-3.5 24.6q0 28.1 8.8 41.7t23.3 13.6a52.2 52.2 0 0 0 17.9-3 40.8 40.8 0 0 0 13.1-7.3 233.2 233.2 0 0 0 1.8-23.3zM2821.8 731.2a27.9 27.9 0 0 1 10.9-9.7 32.5 32.5 0 0 1 14.9-3.4 28.2 28.2 0 0 1 14.1 3.4 23.4 23.4 0 0 1 9.1 9 24.4 24.4 0 0 1 3.1 12.1q0 12.6-8.6 19.9t-22.3 7.3a25.6 25.6 0 0 1-12.3-3.1 25.3 25.3 0 0 1-9.4-8.7 23 23 0 0 1-3.6-12.7 24.9 24.9 0 0 1 4.1-14.1zM2959.6 698.7q25.3-28.1 25.3-55.2 0-13.9-8.9-22t-23.8-8.1a55 55 0 0 0-19 3.1 57.9 57.9 0 0 0-13.4 6.6q-5 3.5-12.7 9.8l-12.3-18q5.9-7.5 17.4-15.4a114 114 0 0 1 26.5-13.3 89.6 89.6 0 0 1 30.2-5.3q22.6 0 37.8 7.3t22.6 19.6a51.9 51.9 0 0 1 7.4 27.2q0 28-26.6 55.7T2941 743l82-7.3 11.7-22.4 20.8 4.2-8.1 52.1H2900l-6.9-18q41.2-24.8 66.5-52.9zM3080.7 621.2q11.8-22 31.6-32.8a90 90 0 0 1 43.9-10.8q38.5 0 58.4 24t19.7 69.1q0 31.8-11.7 54.2t-31.3 33.6a86.5 86.5 0 0 1-43.7 11.2q-25.2 0-42.8-11.4t-26.8-32.5q-9.1-21.2-9.1-50.7.1-31.9 11.8-53.9zm99.8 8.6q-3.2-16.8-10-24.8t-18.6-7.9q-16.8 0-24.6 18.1t-7.8 55.7q0 40.6 7.8 59.8t25 19.2q16.6 0 24-18.4t7.4-57.2q0-27.6-3.2-44.4zM3288.3 746V627.7a162.3 162.3 0 0 1-18.5 3.9q-13.3 2.3-19.6 2.3l-3.8-23.1a141.6 141.6 0 0 0 34.7-11.9q18-8.7 29.3-18.1h.1l27.2 3.1V746l30.9 4.1v19.5H3253v-19.5zM3407.1 613.5l-16.7 43.7-28-5.6 7.6-67.7h145l8.6 11-80.3 229.1-50.8-13.9q19-37.8 37.6-79.9t42-97.7l7.9-19z"/></g></g></svg>